<?xml version="1.0" encoding="utf-8"?>
<!-- Generator: Adobe Illustrator 16.0.0, SVG Export Plug-In . SVG Version: 6.00 Build 0)  -->
<!DOCTYPE svg PUBLIC "-//W3C//DTD SVG 1.1//EN" "http://www.w3.org/Graphics/SVG/1.1/DTD/svg11.dtd">
<svg version="1.1" id="Layer_1" xmlns="http://www.w3.org/2000/svg" xmlns:xlink="http://www.w3.org/1999/xlink" x="0px" y="0px"
	 width="416px" height="208.485px" viewBox="0.75 0.75 416 208.485" enable-background="new 0.75 0.75 416 208.485"
	 xml:space="preserve">
<path fill="#FFFFFF" d="M318.018,50.25c-26.754-30.349-65.914-49.5-109.554-49.5c-43.639,0-82.798,19.151-109.552,49.5H318.018z"/>
<image display="none" overflow="visible" enable-background="new    " width="1242" height="2208" xlink:href="C0D39C38.jpeg"  transform="matrix(1 0 0 1 -413.5002 -1999.75)">
</image>
<rect x="0.75" y="45.25" fill="#EAEAEA" width="416" height="163.985"/>
<path fill="#439959" d="M239.997,92.9l-11.646-11.656V68.401c0-1.01-0.818-1.827-1.828-1.827h-36.539
	c-1.009,0-1.827,0.817-1.827,1.827V81.19l-12.012,11.975c-0.102,0.099-0.19,0.21-0.266,0.329v0.072
	c-0.05,0.089-0.093,0.18-0.128,0.275v0.118c-0.022,0.081-0.042,0.163-0.055,0.247c0,0.054,0,0.1,0,0.155c0,0.054,0,0.072,0,0.109
	v40.795c0,1.01,0.818,1.826,1.827,1.826l0,0h61.567c1.012,0,1.827-0.816,1.827-1.826V94.472
	C240.914,93.82,240.563,93.223,239.997,92.9z M228.352,86.414l7.728,7.729l-7.728,4.567V86.414z M191.812,81.948
	c0,0,0-0.047,0-0.074V70.228h32.885v30.593l-9.93,5.828h-13.146h-0.063l-9.747-5.792L191.812,81.948L191.812,81.948z
	 M188.158,86.305v12.388l-7.783-4.568L188.158,86.305z M237.268,133.439h-58.024V97.678l18.635,10.96l-11.783,13.483
	c-0.634,0.786-0.51,1.937,0.275,2.567c0.738,0.596,1.809,0.525,2.464-0.156l12.479-14.231h13.409l12.133,13.886
	c0.606,0.806,1.754,0.963,2.56,0.354c0.806-0.606,0.963-1.754,0.354-2.562c-0.054-0.067-0.11-0.135-0.175-0.195l-11.29-12.962
	l18.965-11.136L237.268,133.439L237.268,133.439z M197.448,78.632c0-1.009,0.817-1.827,1.827-1.827h17.958
	c1.01,0,1.828,0.818,1.828,1.827c0,1.01-0.818,1.827-1.828,1.827h-17.958c-1.005,0-1.822-0.813-1.827-1.817V78.632z M197.448,86.898
	c0-1.009,0.817-1.827,1.827-1.827h17.958c1.01,0,1.828,0.818,1.828,1.827c0,1.009-0.818,1.827-1.828,1.827h-17.958
	c-1.005,0-1.822-0.813-1.827-1.818V86.898z M217.232,97.011h-17.958c-1.009,0-1.827-0.817-1.827-1.826
	c0-1.01,0.817-1.827,1.827-1.827h17.958c1.01,0,1.828,0.817,1.828,1.827C219.061,96.193,218.242,97.011,217.232,97.011z"/>
<g>
	<path fill="#439959" d="M162.345,185h-3c-0.348,0-0.628-0.087-0.841-0.26c-0.214-0.174-0.374-0.395-0.479-0.66l-2.68-6.92h-12.86
		l-2.68,6.92c-0.094,0.24-0.253,0.453-0.48,0.641c-0.227,0.188-0.507,0.279-0.84,0.279h-3l11.46-28.66h3.94L162.345,185z
		 M143.565,174.359h10.7l-4.5-11.659c-0.293-0.72-0.58-1.62-0.86-2.7c-0.147,0.547-0.29,1.05-0.43,1.51
		c-0.141,0.461-0.277,0.863-0.41,1.211L143.565,174.359z"/>
	<path fill="#439959" d="M169.365,155.54V185h-3.56v-29.46H169.365L169.365,155.54z"/>
	<path fill="#439959" d="M179.604,155.54V185h-3.561v-29.46H179.604L179.604,155.54z"/>
	<path fill="#439959" d="M193.604,185v-20.26h2.12c0.506,0,0.826,0.246,0.96,0.74l0.26,2.078c0.747-0.92,1.583-1.672,2.51-2.26
		c0.927-0.586,2.003-0.88,3.23-0.88c1.373,0,2.482,0.38,3.33,1.14c0.847,0.762,1.457,1.787,1.83,3.08
		c0.279-0.731,0.648-1.365,1.109-1.898c0.459-0.533,0.978-0.975,1.549-1.32c0.574-0.347,1.185-0.6,1.83-0.76
		c0.646-0.16,1.305-0.24,1.972-0.24c1.065,0,2.017,0.17,2.85,0.51c0.834,0.34,1.54,0.838,2.12,1.49
		c0.58,0.653,1.022,1.457,1.33,2.41c0.307,0.953,0.46,2.043,0.46,3.27V185h-3.562v-12.9c0-1.586-0.346-2.789-1.039-3.608
		c-0.692-0.82-1.699-1.229-3.021-1.229c-0.587,0-1.145,0.104-1.67,0.311c-0.526,0.207-0.989,0.51-1.391,0.91
		c-0.399,0.398-0.717,0.902-0.949,1.51c-0.233,0.607-0.352,1.311-0.352,2.109V185h-3.56v-12.9c0-1.625-0.327-2.84-0.98-3.64
		c-0.652-0.8-1.606-1.2-2.859-1.2c-0.88,0-1.697,0.237-2.45,0.711c-0.753,0.473-1.443,1.116-2.07,1.93V185H193.604z"/>
	<path fill="#439959" d="M241.324,185h-1.58c-0.347,0-0.627-0.053-0.84-0.16c-0.213-0.105-0.354-0.333-0.42-0.68l-0.4-1.881
		c-0.533,0.479-1.053,0.91-1.56,1.291c-0.507,0.38-1.04,0.699-1.602,0.959c-0.56,0.261-1.155,0.457-1.789,0.591
		c-0.634,0.133-1.338,0.2-2.109,0.2c-0.787,0-1.523-0.11-2.21-0.33c-0.688-0.221-1.283-0.551-1.79-0.99s-0.91-0.996-1.21-1.67
		c-0.3-0.673-0.45-1.471-0.45-2.391c0-0.801,0.22-1.569,0.66-2.311c0.439-0.74,1.148-1.396,2.13-1.97
		c0.981-0.574,2.264-1.043,3.85-1.41c1.587-0.366,3.527-0.576,5.82-0.63v-1.58c0-1.573-0.337-2.764-1.01-3.57
		c-0.674-0.807-1.67-1.21-2.99-1.21c-0.867,0-1.597,0.11-2.188,0.33c-0.595,0.22-1.107,0.468-1.541,0.74s-0.808,0.521-1.119,0.739
		c-0.313,0.221-0.623,0.33-0.931,0.33c-0.239,0-0.45-0.063-0.631-0.189c-0.18-0.127-0.323-0.283-0.43-0.471l-0.641-1.141
		c1.12-1.08,2.326-1.886,3.62-2.42c1.293-0.533,2.728-0.8,4.301-0.8c1.133,0,2.14,0.187,3.02,0.562c0.88,0.373,1.62,0.893,2.22,1.56
		c0.602,0.667,1.055,1.474,1.36,2.42c0.307,0.947,0.46,1.987,0.46,3.12V185L241.324,185z M232.084,182.82
		c0.627,0,1.2-0.063,1.722-0.19c0.52-0.126,1.01-0.307,1.47-0.54c0.46-0.232,0.898-0.517,1.319-0.85s0.829-0.713,1.229-1.141v-4.221
		c-1.64,0.055-3.033,0.184-4.18,0.391s-2.08,0.478-2.802,0.811c-0.719,0.333-1.241,0.727-1.568,1.18
		c-0.327,0.454-0.49,0.961-0.49,1.521c0,0.533,0.087,0.992,0.261,1.38c0.173,0.387,0.406,0.702,0.699,0.95
		c0.293,0.246,0.642,0.427,1.04,0.539C231.185,182.764,231.617,182.82,232.084,182.82z"/>
	<path fill="#439959" d="M251.484,158.38c0,0.347-0.07,0.67-0.211,0.97c-0.141,0.301-0.326,0.567-0.561,0.801
		c-0.233,0.234-0.503,0.416-0.81,0.551c-0.308,0.133-0.634,0.199-0.98,0.199c-0.348,0-0.67-0.066-0.971-0.199
		c-0.299-0.135-0.565-0.316-0.799-0.551c-0.234-0.232-0.418-0.5-0.551-0.801c-0.133-0.3-0.199-0.623-0.199-0.97
		s0.066-0.677,0.199-0.989c0.133-0.313,0.315-0.586,0.551-0.82c0.232-0.232,0.5-0.416,0.799-0.551
		c0.301-0.133,0.623-0.199,0.971-0.199s0.674,0.066,0.98,0.199c0.307,0.135,0.576,0.317,0.81,0.551
		c0.234,0.234,0.42,0.508,0.561,0.82S251.484,158.033,251.484,158.38z M250.684,164.74V185h-3.562v-20.26H250.684z"/>
	<path fill="#439959" d="M260.924,155.54V185h-3.561v-29.46H260.924L260.924,155.54z"/>
	<path fill="#439959" d="M278.804,168.08c-0.16,0.293-0.407,0.439-0.74,0.439c-0.2,0-0.427-0.072-0.681-0.221
		c-0.253-0.146-0.563-0.311-0.931-0.49c-0.366-0.18-0.803-0.346-1.31-0.5c-0.507-0.151-1.106-0.229-1.8-0.229
		c-0.601,0-1.142,0.077-1.62,0.229c-0.479,0.154-0.891,0.364-1.229,0.631c-0.339,0.268-0.601,0.576-0.78,0.931
		c-0.181,0.354-0.271,0.735-0.271,1.149c0,0.521,0.15,0.953,0.45,1.301c0.3,0.347,0.695,0.646,1.189,0.898
		c0.492,0.254,1.054,0.479,1.681,0.67c0.627,0.193,1.27,0.4,1.93,0.62c0.66,0.222,1.303,0.464,1.93,0.729
		c0.627,0.267,1.188,0.601,1.682,1c0.492,0.4,0.89,0.891,1.189,1.471c0.299,0.58,0.449,1.277,0.449,2.09
		c0,0.934-0.166,1.797-0.5,2.59c-0.333,0.795-0.826,1.48-1.479,2.062c-0.652,0.581-1.453,1.036-2.399,1.37
		c-0.946,0.332-2.04,0.5-3.28,0.5c-1.413,0-2.693-0.23-3.84-0.69c-1.147-0.46-2.119-1.05-2.92-1.771l0.84-1.359
		c0.107-0.173,0.233-0.307,0.381-0.4c0.146-0.093,0.34-0.14,0.58-0.14c0.239,0,0.492,0.094,0.76,0.28
		c0.267,0.187,0.59,0.394,0.971,0.619c0.38,0.227,0.84,0.434,1.38,0.621c0.54,0.187,1.217,0.278,2.029,0.278
		c0.692,0,1.301-0.09,1.819-0.271c0.521-0.18,0.953-0.424,1.301-0.729c0.347-0.307,0.604-0.659,0.771-1.06s0.25-0.827,0.25-1.28
		c0-0.56-0.15-1.022-0.449-1.39c-0.301-0.367-0.697-0.682-1.19-0.94c-0.492-0.259-1.058-0.485-1.689-0.68s-1.279-0.396-1.939-0.61
		c-0.659-0.213-1.307-0.456-1.939-0.729c-0.633-0.273-1.196-0.617-1.69-1.03c-0.492-0.413-0.89-0.923-1.188-1.53
		c-0.3-0.605-0.45-1.343-0.45-2.21c0-0.772,0.16-1.517,0.479-2.229c0.32-0.713,0.787-1.34,1.4-1.879
		c0.613-0.541,1.367-0.972,2.26-1.291c0.895-0.319,1.914-0.479,3.062-0.479c1.333,0,2.528,0.21,3.59,0.63
		c1.061,0.42,1.977,0.997,2.75,1.73L278.804,168.08z"/>
</g>
</svg>
