<?xml version="1.0" encoding="utf-8"?>
<!-- Generator: Adobe Illustrator 16.0.0, SVG Export Plug-In . SVG Version: 6.00 Build 0)  -->
<!DOCTYPE svg PUBLIC "-//W3C//DTD SVG 1.1//EN" "http://www.w3.org/Graphics/SVG/1.1/DTD/svg11.dtd">
<svg version="1.1" id="Layer_1" xmlns="http://www.w3.org/2000/svg" xmlns:xlink="http://www.w3.org/1999/xlink" x="0px" y="0px"
	 width="41px" height="22px" viewBox="0 0 41 22" enable-background="new 0 0 41 22" xml:space="preserve">
<path fill-rule="evenodd" clip-rule="evenodd" fill="#868686" d="M20.199,21.547c-0.517-0.151-0.841-0.556-1.2-0.916
	c-1.881-1.884-3.761-3.769-5.64-5.654C9.911,11.519,6.463,8.059,3.015,4.601c-0.554-0.557-1.104-1.118-1.661-1.67
	C1.126,2.706,0.949,2.458,0.878,2.143C0.874,2.124,0.855,2.108,0.844,2.091c0-0.022,0-0.044,0-0.067
	c0.028-0.123,0.028-0.246,0-0.368c0-0.022,0-0.044,0-0.067c0.077-0.496,0.362-0.831,0.803-1.051c0.107-0.054,0.226-0.05,0.334-0.085
	c0.167,0,0.334,0,0.501,0c0.444,0.104,0.745,0.41,1.053,0.719c3.258,3.272,6.521,6.54,9.781,9.81
	c2.359,2.366,4.719,4.734,7.074,7.104c0.11,0.11,0.162,0.102,0.266-0.003c1.974-1.988,3.953-3.972,5.929-5.958
	c2.173-2.184,4.345-4.367,6.518-6.551c1.535-1.544,3.073-3.086,4.604-4.636c0.227-0.229,0.495-0.365,0.781-0.485
	c0.178,0,0.356,0,0.534,0c0.553,0.042,1.095,0.584,1.137,1.136c0,0.167,0,0.334,0,0.502c-0.131,0.5-0.511,0.818-0.854,1.163
	c-2.855,2.862-5.711,5.725-8.565,8.588c-2.962,2.97-5.922,5.939-8.881,8.912c-0.329,0.331-0.645,0.673-1.121,0.792
	C20.556,21.547,20.378,21.547,20.199,21.547z"/>
</svg>
