<?xml version="1.0" encoding="utf-8"?>
<!-- Generator: Adobe Illustrator 16.0.0, SVG Export Plug-In . SVG Version: 6.00 Build 0)  -->
<!DOCTYPE svg PUBLIC "-//W3C//DTD SVG 1.1//EN" "http://www.w3.org/Graphics/SVG/1.1/DTD/svg11.dtd">
<svg version="1.1" id="Layer_1" xmlns="http://www.w3.org/2000/svg" xmlns:xlink="http://www.w3.org/1999/xlink" x="0px" y="0px"
	 width="50px" height="28px" viewBox="0 0 50 28" enable-background="new 0 0 50 28" xml:space="preserve">
<g>
	<path fill="#44995A" d="M11.809,27.217c-2.93,0-5.673-1.399-7.723-3.94C2.08,20.791,0.975,17.496,0.975,14
		c0-3.495,1.104-6.79,3.111-9.276c2.05-2.541,4.793-3.94,7.723-3.94c2.93,0,5.672,1.4,7.723,3.94c2.006,2.486,3.11,5.781,3.11,9.276
		c0,3.496-1.104,6.791-3.11,9.276C17.481,25.817,14.739,27.217,11.809,27.217z M11.809,2.537C6.802,2.537,2.729,7.679,2.729,14
		s4.074,11.463,9.081,11.463s9.08-5.143,9.08-11.463S16.816,2.537,11.809,2.537z"/>
</g>
<ellipse fill="#44995A" cx="14.702" cy="14" rx="3.915" ry="4.852"/>
<g>
	<path fill="#44995A" d="M38.191,27.217c-2.93,0-5.673-1.399-7.723-3.94c-2.006-2.486-3.11-5.78-3.11-9.276
		c0-3.495,1.104-6.79,3.11-9.276c2.05-2.541,4.793-3.94,7.723-3.94c2.93,0,5.673,1.4,7.723,3.94C47.92,7.21,49.025,10.505,49.025,14
		c0,3.496-1.105,6.791-3.111,9.276C43.864,25.817,41.121,27.217,38.191,27.217z M38.191,2.537c-5.007,0-9.08,5.142-9.08,11.463
		s4.073,11.463,9.08,11.463c5.006,0,9.08-5.143,9.08-11.463S43.197,2.537,38.191,2.537z"/>
</g>
<ellipse fill="#44995A" cx="41.084" cy="14" rx="3.915" ry="4.852"/>
</svg>
