<?xml version="1.0" encoding="utf-8"?>
<!-- Generator: Adobe Illustrator 16.0.0, SVG Export Plug-In . SVG Version: 6.00 Build 0)  -->
<!DOCTYPE svg PUBLIC "-//W3C//DTD SVG 1.1//EN" "http://www.w3.org/Graphics/SVG/1.1/DTD/svg11.dtd">
<svg version="1.1" id="Layer_1" xmlns="http://www.w3.org/2000/svg" xmlns:xlink="http://www.w3.org/1999/xlink" x="0px" y="0px"
	 width="63.416px" height="60.88px" viewBox="-5.362 8.29 63.416 60.88" enable-background="new -5.362 8.29 63.416 60.88"
	 xml:space="preserve">
<g transform="translate(0,-952.36218)">
	<g>
		<path fill="#FFFFFF" d="M26.304,960.653c-0.333,0.01-0.644,0.142-0.943,0.389l-30.122,28.535c-0.693,0.668-0.792,1.9-0.273,2.705
			c0.511,0.794,1.6,0.921,2.254,0.298l29.133-27.587l29.131,27.587c0.655,0.619,1.714,0.489,2.229-0.298
			c0.512-0.78,0.457-2.081-0.248-2.705l-30.123-28.535C26.993,960.762,26.636,960.644,26.304,960.653z M6.536,986.249l-3.171,3.003
			v30.377c0,1.052,0.71,1.903,1.584,1.903h15.063c0.874,0,1.584-0.848,1.584-1.903v-17.119h9.513v17.119
			c0,1.052,0.707,1.903,1.585,1.903h15.061c0.878,0,1.587-0.848,1.587-1.903v-30.377l-3.173-3.003v31.477H34.279v-17.119
			c0-1.055-0.71-1.903-1.584-1.903H20.009c-0.875,0-1.583,0.853-1.583,1.903v17.119H6.536V986.249L6.536,986.249z"/>
	</g>
</g>
</svg>
