<?xml version="1.0" encoding="utf-8"?>
<!-- Generator: Adobe Illustrator 16.0.0, SVG Export Plug-In . SVG Version: 6.00 Build 0)  -->
<!DOCTYPE svg PUBLIC "-//W3C//DTD SVG 1.1//EN" "http://www.w3.org/Graphics/SVG/1.1/DTD/svg11.dtd">
<svg version="1.1" id="Layer_1" xmlns="http://www.w3.org/2000/svg" xmlns:xlink="http://www.w3.org/1999/xlink" x="0px" y="0px"
	 width="68px" height="71px" viewBox="0 0 68 71" enable-background="new 0 0 68 71" xml:space="preserve">
<g display="none">
	<g display="inline">
		<path fill="#FFFFFF" d="M58.744,18.472c0-5.109-3.727-8.938-8.939-8.938H48.74v2.553h0.213c0.213,0,0.426,0,0.638,0
			c0.746,0,1.597,0,2.554,0.32c2.556,0.851,4.045,3.086,4.045,5.959V36.99v7.132c0,0.957,0,0.851,0,1.915c0,2.232,0,11.705,0,13.939
			c0,1.703-0.532,3.192-1.703,4.471c-1.17,1.275-2.873,1.914-4.682,1.914c-4.152,0-8.515,0-13.941,0H18.196
			c-3.724,0-6.385-2.553-6.385-6.385c0-11.175,0-28.201,0-40.867c0-0.957,0-2.021,0.319-2.872c0.745-2.449,2.554-3.831,5.002-4.151
			c0.532-0.106,1.171-0.106,2.022-0.106h0.107V9.534h-1.49c-0.639,0-1.277,0.105-1.809,0.212c-4.044,0.957-6.705,4.363-6.705,8.513
			v21.181c0,4.787,0,15.963,0,20.965c0,0.744,0.107,1.597,0.319,2.447c0.745,2.979,3.725,6.172,8.301,6.172l0,0h0.213
			c1.277,0,2.554,0,4.15,0c1.064,0,2.128,0,3.193,0c1.064,0,2.128,0,3.192,0h1.916h9.473c2.873,0,6.811,0,10.641,0
			c4.046,0,7.662-3.513,7.982-7.557c0.106-2.021,0.106-8.406,0.106-10.429v-4.683C58.744,34.222,58.744,27.518,58.744,18.472z"/>
		<path fill="#FFFFFF" d="M23.411,13.789h21.284c0.959,0,1.385-0.426,1.385-1.382c0-0.745,0-1.81,0-2.556
			c0-2.021-0.105-2.233-2.234-2.128c-1.597,0-2.979-0.318-4.15-1.384c-0.745-0.745-1.277-1.596-1.811-2.553
			c-0.744-1.171-1.703-1.81-3.085-1.81c-0.639,0-1.384,0-2.023,0c-1.17,0-2.128,0.532-2.66,1.595
			C29.797,4,29.584,4.532,29.264,4.957c-0.745,1.383-2.022,2.235-3.512,2.554c-0.851,0.213-1.809,0.107-2.66,0.107
			c-0.852,0-1.277,0.426-1.277,1.277c0,0.956,0,2.34,0,3.298C21.815,13.471,22.241,13.789,23.411,13.789z M24.476,10.278
			c0.531,0,1.17,0,1.809-0.213c2.234-0.426,4.151-1.81,5.321-3.832c0.107-0.105,0.213-0.317,0.319-0.531
			c0.107-0.213,0.32-0.532,0.426-0.745c0.212-0.213,0.212-0.318,0.532-0.318c0.213,0,0.319,0,0.532,0h0.958c0.213,0,0.426,0,0.639,0
			s0.426,0,0.745,0.531l0.106,0.107c0.531,0.956,1.17,2.021,2.128,2.979c1.384,1.384,3.299,2.129,5.534,2.129v0.744H24.476V10.278z"
			/>
		<path fill="#FFFFFF" d="M48.421,21.558c-0.639-0.957-1.703-1.596-2.874-1.809c-0.213,0-0.531-0.108-0.745-0.108
			c-2.235,0-4.043,1.599-4.362,3.728c-0.107,0.957,0,1.915,0.424,2.766l0,0c-2.233,2.554-4.362,5.109-6.703,7.771c0,0,0,0,0,0.105
			c-0.319-0.214-0.745-0.319-1.171-0.319c-0.852-0.107-1.703,0-2.448,0.319c-1.171-1.278-2.448-2.555-3.512-3.726
			c0.212-0.425,0.319-0.852,0.426-1.275c0.212-1.171-0.107-2.342-0.746-3.301c-0.745-0.958-1.703-1.596-2.873-1.808
			c-0.212,0-0.532-0.108-0.745-0.108c-2.235,0-4.044,1.597-4.363,3.726c-0.107,0.639-0.107,1.277,0.105,1.915
			c0.213,0.532,0.427,1.171,0.852,1.597c0.639,0.852,1.596,1.384,2.661,1.597c0.851,0.105,1.809,0,2.66-0.319
			c0.533,0.64,1.171,1.17,1.703,1.81l0.107,0.105c0.532,0.533,1.064,1.171,1.596,1.703c-0.213,0.427-0.425,0.958-0.532,1.491
			c-0.213,1.169,0,2.34,0.745,3.404c0.745,0.958,1.703,1.596,2.874,1.81c0.213,0,0.532,0.106,0.745,0.106l0,0
			c2.234,0,4.043-1.598,4.363-3.725c0.106-0.959,0-1.918-0.426-2.769c2.129-2.554,4.469-5.215,6.812-7.875
			c0.319,0.106,0.745,0.318,1.063,0.318c0.213,0,0.532,0.107,0.745,0.107c1.384,0,2.769-0.639,3.619-1.809
			c0.425-0.533,0.638-1.172,0.745-1.81V25.07C49.378,23.792,49.166,22.516,48.421,21.558z M30.542,39.331
			c-0.32-0.425-0.532-1.063-0.425-1.597c0.105-0.957,1.063-1.701,2.021-1.701l0,0c0.107,0,0.213,0,0.319,0
			c1.171,0.212,1.916,1.17,1.703,2.34c-0.212,1.172-1.171,1.916-2.341,1.813C31.393,40.184,30.861,39.863,30.542,39.331z
			 M46.932,24.538c-0.214,1.171-1.172,1.916-2.342,1.811c-0.531-0.106-1.064-0.427-1.384-0.852
			c-0.319-0.426-0.531-1.064-0.427-1.596c0.107-0.959,1.064-1.704,2.022-1.704l0,0c0.106,0,0.214,0,0.319,0
			C46.292,22.41,47.037,23.369,46.932,24.538z M25.114,28.583c-0.212,1.172-1.17,1.917-2.341,1.81
			c-0.532-0.107-1.065-0.427-1.383-0.852c-0.32-0.426-0.533-1.064-0.426-1.598c0.106-0.956,1.064-1.701,2.022-1.701l0,0
			c0.106,0,0.212,0,0.319,0C24.582,26.454,25.221,27.412,25.114,28.583z M32.245,42.417L32.245,42.417L32.245,42.417L32.245,42.417z
			"/>
		<rect x="17.452" y="48.802" fill="#FFFFFF" width="7.769" height="2.661"/>
		<rect x="27.349" y="48.802" fill="#FFFFFF" width="22.562" height="2.661"/>
		<rect x="17.452" y="56.04" fill="#FFFFFF" width="21.284" height="2.659"/>
		<rect x="40.863" y="56.04" fill="#FFFFFF" width="8.941" height="2.659"/>
	</g>
</g>
<path display="none" fill="#FFFFFF" d="M55.154,25.042C52.885,15.301,44.1,8.369,34.059,8.369c-10.099,0-18.825,6.932-21.096,16.673
	c-3.764,1.255-6.454,4.721-6.454,8.845v9.083c0,4.362,3.048,8.009,7.111,9.024c2.211,4.601,6.753,7.529,11.952,7.529h2.989
	c0.538,1.793,2.21,3.107,4.183,3.107h3.229c2.449,0,4.422-1.972,4.422-4.422s-1.973-4.423-4.422-4.423h-3.229
	c-1.793,0-3.347,1.075-4.063,2.63h-3.167c-3.407,0-6.454-1.673-8.307-4.361c2.271-0.598,4.004-2.689,4.004-5.199V29.942
	c0-2.808-2.211-5.139-4.96-5.378c2.39-7.709,9.562-13.147,17.749-13.147c8.247,0,15.419,5.438,17.749,13.147
	c-2.748,0.24-4.96,2.51-4.96,5.378v16.914c0,2.987,2.391,5.377,5.379,5.377c5.141,0,9.323-4.183,9.323-9.321v-9.023
	C61.549,29.763,58.859,26.297,55.154,25.042z M32.805,56.895h3.227c0.718,0,1.315,0.599,1.315,1.315s-0.598,1.315-1.315,1.315
	h-3.227c-0.717,0-1.315-0.599-1.315-1.315C31.49,57.434,32.027,56.895,32.805,56.895z M18.163,29.942v16.914
	c0,1.254-1.017,2.271-2.271,2.271c-3.406,0-6.216-2.81-6.216-6.215v-9.023c0-3.407,2.81-6.216,6.216-6.216
	C17.087,27.671,18.163,28.688,18.163,29.942z M58.441,42.971c0,3.406-2.809,6.215-6.215,6.215c-1.254,0-2.271-1.016-2.271-2.271
	V29.942c0-1.254,1.017-2.271,2.271-2.271c3.406,0,6.215,2.809,6.215,6.216V42.971z"/>
<g display="none">
	<g display="inline">
		<path fill="#FFFFFF" d="M11.167,18.723c0.544,0,0.986-0.441,0.986-0.985v-2.532c0.006-0.417,0.152-4.092,4.086-4.092h2.539
			c0.543,0,0.985-0.442,0.985-0.986c0-0.545-0.442-0.985-0.985-0.985h-2.539c-4.793,0-6.063,3.965-6.063,6.056V16.8
			c-1.741,0.152-5.072,0.798-5.072,3.476c0,2.678,3.331,3.325,5.071,3.476v3.198c-1.741,0.151-5.071,0.798-5.071,3.476
			c0,2.678,3.331,3.325,5.071,3.476V37.1c-1.741,0.15-5.071,0.797-5.071,3.476c0,2.678,3.331,3.323,5.071,3.476v3.197
			c-1.741,0.15-5.071,0.798-5.071,3.477c0,2.678,3.331,3.324,5.071,3.476v1.597c0,2.098,1.269,6.063,6.063,6.063h2.539
			c0.544,0,0.985-0.44,0.985-0.983c0-0.544-0.441-0.987-0.985-0.987h-2.539c-3.934,0-4.08-3.674-4.086-4.091v-2.532
			c0-0.551-0.441-0.992-0.985-0.992c-1.426,0-4.086-0.453-4.086-1.547c0-1.088,2.66-1.549,4.086-1.554
			c0.543,0,0.985-0.44,0.985-0.983v-5.072c0-0.542-0.441-0.991-0.985-0.991c-1.426,0-4.086-0.454-4.086-1.548
			c0-1.088,2.66-1.547,4.086-1.553c0.543,0,0.985-0.443,0.985-0.986v-5.072c0-0.549-0.441-0.991-0.985-0.991
			c-1.426,0-4.086-0.454-4.086-1.548c0-1.088,2.66-1.548,4.086-1.554c0.543,0,0.985-0.441,0.985-0.986v-5.071
			c0-0.543-0.441-0.991-0.985-0.991c-1.426,0-4.086-0.453-4.086-1.548C7.081,19.188,9.741,18.729,11.167,18.723z"/>
		<path fill="#FFFFFF" d="M56.833,9.143H23.849c-0.544,0-0.985,0.441-0.985,0.985c0,0.543,0.441,0.986,0.985,0.986h32.985
			c0.417,0.004,4.092,0.15,4.092,4.085v40.596c-0.006,0.416-0.152,4.091-4.092,4.091H23.849c-0.544,0-0.985,0.442-0.985,0.986
			s0.441,0.983,0.985,0.983h32.985c4.792,0,6.063-3.965,6.063-6.062V15.199C62.896,10.406,58.934,9.143,56.833,9.143z"/>
		<path fill="#FFFFFF" d="M39.075,29.579c0.446,0,0.876-0.181,1.196-0.496c0.313-0.314,0.496-0.749,0.496-1.197
			c0-0.447-0.184-0.882-0.496-1.196c-0.313-0.315-0.75-0.496-1.196-0.496c-0.447,0-0.882,0.181-1.197,0.496
			c-0.313,0.314-0.495,0.749-0.495,1.196c0,0.448,0.18,0.883,0.495,1.197C38.193,29.398,38.628,29.579,39.075,29.579z"/>
		<path fill="#FFFFFF" d="M32.159,36.198c0.628-0.628,2.642-2.249,4.376-2.249c0.084,0,0.158,0.007,0.212,0.007
			c-0.212,0.743-1.481,2.435-2.268,3.487c-1.788,2.388-3.203,4.272-2.508,5.658c0.223,0.451,0.762,0.998,2.031,0.998
			c2.906,0,5.65-2.716,5.768-2.83c0.387-0.381,0.387-1.009,0-1.391c-0.381-0.387-1.004-0.387-1.392-0.006
			c-0.628,0.63-2.642,2.25-4.376,2.25c-0.084,0-0.156,0-0.211-0.007c0.206-0.744,1.48-2.437,2.268-3.488
			c1.789-2.387,3.203-4.267,2.508-5.657c-0.225-0.454-0.762-0.998-2.031-0.998c-2.907,0-5.651,2.714-5.773,2.829
			c-0.381,0.386-0.381,1.009,0,1.396C31.15,36.579,31.773,36.579,32.159,36.198z"/>
		<path fill="#FFFFFF" d="M36.536,51.708c8.94,0,16.212-7.272,16.212-16.211c0-8.934-7.271-16.206-16.212-16.206
			c-8.94,0-16.206,7.271-16.206,16.206C20.331,44.436,27.596,51.708,36.536,51.708z M36.536,21.262
			c7.853,0,14.235,6.39,14.235,14.235c0,7.853-6.383,14.241-14.235,14.241c-7.846,0-14.235-6.391-14.235-14.241
			C22.301,27.651,28.69,21.262,36.536,21.262z"/>
	</g>
</g>
<g display="none">
	<g display="inline">
		<path fill="#FFFFFF" d="M59.43,47.837L45.342,33.75c-0.563-0.563-1.408-0.563-1.973,0c-0.563,0.563-0.563,1.408,0,1.972
			l14.087,14.086c2.536,2.536,2.536,6.762,0,9.297c-1.269,1.269-2.958,1.974-4.649,1.974c-1.689,0-3.381-0.705-4.648-1.974
			L30.551,41.498c4.93-2.114,8.734-6.34,10.143-11.552c0.563-1.972,0.705-3.944,0.563-5.917l0,0
			c-0.563-8.734-7.889-16.06-16.623-16.623c-2.958-0.141-5.775,0.423-8.452,1.55c-0.422,0.141-0.704,0.563-0.845,0.986
			c-0.141,0.422,0,0.986,0.422,1.268l9.861,9.861c1.69,1.69,1.69,4.367,0,6.057c-0.845,0.845-1.831,1.268-3.1,1.268
			c-1.126,0-2.253-0.423-3.099-1.268l-9.86-10.001c-0.281-0.282-0.845-0.423-1.268-0.423c-0.422,0.141-0.845,0.423-0.986,0.845
			c-1.127,2.536-1.691,5.071-1.55,7.748c0.141,8.311,6.621,15.637,14.791,17.045c0.986,0.141,1.972,0.282,2.959,0.282
			c1.268,0,2.676-0.142,3.944-0.423l18.595,18.595c1.831,1.831,4.085,2.817,6.621,2.817s4.931-0.986,6.621-2.817
			C63.232,57.417,63.232,51.5,59.43,47.837z M21.253,39.948C14.35,38.82,8.997,32.623,8.715,25.58c0-1.55,0.141-3.099,0.564-4.649
			l8.452,8.452c1.409,1.409,3.099,2.113,5.071,2.113c1.972,0,3.663-0.704,5.071-2.113c2.817-2.817,2.817-7.325,0-10.143
			l-8.312-8.313c1.69-0.422,3.381-0.704,5.071-0.563c7.326,0.423,13.524,6.479,13.947,13.946l0,0c0.142,1.691,0,3.381-0.563,4.93
			c-1.41,5.072-5.354,9.016-10.285,10.425C25.479,40.23,23.366,40.371,21.253,39.948z"/>
		<path fill="#FFFFFF" d="M52.104,57.839c2.396,0,4.227-1.832,4.227-4.228c0-2.395-1.831-4.226-4.227-4.226
			c-2.395,0-4.227,1.832-4.227,4.226C47.877,56.008,49.709,57.839,52.104,57.839z M52.104,52.204c0.846,0,1.408,0.563,1.408,1.409
			s-0.563,1.408-1.408,1.408c-0.845,0-1.408-0.563-1.408-1.408S51.259,52.204,52.104,52.204z"/>
	</g>
</g>
<path fill="#FFFFFF" d="M17.51,35.156c-0.235,0.699-0.992,1.076-1.691,0.842c-0.658-0.217-1.301-0.476-1.925-0.775l-1.471,1.036
	c-1.323,0.914-3.109,0.757-4.251-0.375L6.6,34.347c-1.129-1.145-1.284-2.931-0.368-4.252l1.037-1.471
	c-0.316-0.626-0.586-1.274-0.809-1.939l-1.765-0.308c-1.583-0.286-2.738-1.66-2.748-3.269v-2.186
	c0.009-1.609,1.165-2.983,2.748-3.269l1.765-0.308c0.223-0.667,0.493-1.316,0.809-1.945l-1.03-1.471
	c-0.914-1.318-0.763-3.1,0.361-4.245l1.571-1.571c1.145-1.129,2.931-1.284,4.251-0.368l1.464,1.037
	c0.626-0.316,1.274-0.586,1.939-0.809l0.307-1.765c0.287-1.583,1.661-2.738,3.27-2.748h2.186c1.609,0.009,2.983,1.164,3.27,2.748
	l0.307,1.765c0.667,0.222,1.317,0.493,1.946,0.809l1.471-1.03c1.32-0.918,3.106-0.766,4.252,0.361l1.544,1.544
	c1.129,1.145,1.283,2.931,0.368,4.252L33.71,15.38c0.3,0.625,0.559,1.268,0.775,1.926c0.261,0.691-0.087,1.462-0.778,1.723
	c-0.691,0.261-1.462-0.087-1.724-0.778c-0.012-0.032-0.022-0.064-0.032-0.096c-0.246-0.766-0.569-1.505-0.962-2.207
	c-0.262-0.45-0.238-1.011,0.06-1.438l1.504-2.14c0.168-0.258,0.138-0.598-0.074-0.822l-1.544-1.544
	c-0.225-0.211-0.564-0.242-0.822-0.074l-2.12,1.524c-0.427,0.298-0.987,0.322-1.438,0.061c-0.906-0.524-1.877-0.926-2.888-1.197
	c-0.521-0.116-0.924-0.531-1.023-1.057L22.19,6.689c-0.062-0.305-0.325-0.526-0.635-0.535h-2.146
	c-0.31,0.009-0.574,0.23-0.635,0.535l-0.455,2.573c-0.088,0.513-0.467,0.928-0.969,1.063c-1.01,0.272-1.981,0.674-2.888,1.197
	c-0.451,0.259-1.012,0.233-1.438-0.067l-2.146-1.504c-0.258-0.168-0.598-0.138-0.822,0.073l-1.544,1.544
	c-0.211,0.224-0.241,0.564-0.074,0.822l1.504,2.146c0.298,0.427,0.321,0.987,0.06,1.438c-0.522,0.907-0.925,1.877-1.196,2.888
	c-0.136,0.503-0.55,0.881-1.063,0.97l-2.574,0.455c-0.304,0.062-0.525,0.325-0.535,0.635v2.186c0.009,0.31,0.23,0.573,0.535,0.635
	l2.574,0.455c0.513,0.089,0.927,0.467,1.063,0.969c0.271,1.011,0.673,1.982,1.196,2.888c0.267,0.454,0.244,1.021-0.06,1.451
	l-1.504,2.139c-0.171,0.26-0.141,0.604,0.074,0.829l1.544,1.545c0.224,0.21,0.564,0.241,0.822,0.073l2.146-1.504
	c0.427-0.298,0.987-0.321,1.438-0.06c0.701,0.394,1.44,0.716,2.206,0.962C17.354,33.726,17.727,34.464,17.51,35.156z M50.477,43.514
	c0,4.682-3.795,8.477-8.478,8.477s-8.478-3.795-8.478-8.477c0-4.683,3.795-8.478,8.478-8.478l0,0
	C46.68,35.039,50.473,38.832,50.477,43.514z M47.802,43.514c0-3.205-2.598-5.804-5.803-5.804s-5.804,2.599-5.804,5.804
	c0,3.204,2.599,5.803,5.804,5.803C45.203,49.313,47.798,46.716,47.802,43.514z M66.053,42.068v2.889
	c0,1.928-1.394,3.573-3.295,3.891l-2.588,0.455c-0.327,1.027-0.74,2.024-1.236,2.981l1.51,2.153c1.104,1.571,0.918,3.709-0.44,5.067
	l-2.039,2.039c-1.356,1.358-3.496,1.546-5.067,0.44l-2.152-1.51c-0.957,0.495-1.955,0.908-2.982,1.236l-0.427,2.561
	c-0.332,1.893-1.978,3.272-3.897,3.27h-2.881c-1.912-0.01-3.541-1.386-3.871-3.27l-0.455-2.586
	c-1.025-0.328-2.021-0.742-2.976-1.237l-2.153,1.511c-1.575,1.139-3.743,0.962-5.114-0.415l-2.005-2.045
	c-1.36-1.356-1.546-3.496-0.441-5.067l1.51-2.152c-0.496-0.957-0.91-1.955-1.237-2.982l-2.587-0.455
	c-1.886-0.331-3.262-1.969-3.263-3.884v-2.89c0.009-1.904,1.375-3.531,3.249-3.87l2.587-0.454c0.327-1.027,0.741-2.025,1.237-2.982
	l-1.511-2.152c-1.124-1.583-0.931-3.749,0.455-5.108l2.005-2.005c1.358-1.359,3.496-1.546,5.068-0.441l2.153,1.511
	c0.957-0.496,1.954-0.91,2.981-1.237l0.494-2.601c0.338-1.875,1.967-3.241,3.871-3.249h2.889c1.921-0.002,3.565,1.377,3.896,3.27
	l0.455,2.587c1.027,0.327,2.025,0.74,2.982,1.237l2.152-1.511c1.571-1.104,3.709-0.918,5.067,0.441l2.032,1.996
	c1.359,1.358,1.547,3.496,0.441,5.068l-1.511,2.153c0.496,0.957,0.91,1.955,1.237,2.981l2.561,0.495
	C64.65,38.516,66.041,40.148,66.053,42.068L66.053,42.068z M63.379,42.068c0.003-0.623-0.443-1.156-1.056-1.264l-3.41-0.602
	c-0.513-0.089-0.929-0.467-1.063-0.969c-0.369-1.371-0.914-2.688-1.625-3.917c-0.261-0.45-0.236-1.011,0.062-1.438l2.005-2.828
	c0.361-0.509,0.302-1.205-0.141-1.645l-2.08-2.039c-0.439-0.442-1.135-0.502-1.645-0.14L51.6,29.232
	c-0.427,0.298-0.988,0.321-1.438,0.06c-1.229-0.71-2.546-1.256-3.918-1.625c-0.502-0.136-0.881-0.55-0.969-1.063l-0.568-3.416
	c-0.116-0.605-0.648-1.041-1.264-1.037h-2.889c-0.623-0.003-1.156,0.443-1.264,1.057l-0.602,3.382
	c-0.088,0.513-0.467,0.928-0.969,1.063c-1.371,0.369-2.688,0.915-3.917,1.625c-0.45,0.261-1.011,0.237-1.437-0.061l-2.829-2.005
	c-0.508-0.361-1.204-0.302-1.644,0.141l-2.039,2.059c-0.443,0.44-0.502,1.136-0.141,1.645l2.006,2.828
	c0.298,0.427,0.321,0.987,0.06,1.438c-0.709,1.229-1.256,2.546-1.625,3.918c-0.14,0.504-0.561,0.88-1.077,0.962l-3.403,0.595
	c-0.607,0.117-1.044,0.652-1.036,1.271v2.89c-0.005,0.615,0.432,1.147,1.036,1.263l3.403,0.596c0.513,0.088,0.928,0.467,1.063,0.969
	c0.369,1.371,0.915,2.688,1.625,3.917c0.261,0.45,0.237,1.011-0.061,1.438L25.7,55.968c-0.343,0.507-0.279,1.185,0.154,1.618
	l2.039,2.039c0.441,0.439,1.135,0.499,1.644,0.141l2.829-2.006c0.426-0.298,0.987-0.32,1.437-0.061
	c1.229,0.71,2.546,1.256,3.917,1.625c0.514,0.141,0.896,0.574,0.969,1.103l0.595,3.403c0.106,0.613,0.641,1.059,1.264,1.057h2.888
	c0.625,0.006,1.164-0.441,1.271-1.057l0.595-3.403c0.089-0.513,0.468-0.928,0.97-1.063c1.371-0.369,2.688-0.916,3.918-1.625
	c0.451-0.261,1.011-0.238,1.438,0.06l2.829,2.006c0.506,0.342,1.185,0.278,1.617-0.154l2.065-2.065
	c0.442-0.44,0.502-1.136,0.141-1.646l-2.006-2.828c-0.297-0.426-0.32-0.986-0.06-1.438c0.71-1.229,1.257-2.546,1.625-3.917
	c0.136-0.502,0.55-0.88,1.063-0.97l3.416-0.568c0.613-0.107,1.059-0.641,1.057-1.263L63.379,42.068z"/>
<g display="none">
	<g display="inline">
		<path fill="#FFFFFF" d="M62.632,61.32v-3.191c0-3.252-1.521-6.383-4.063-8.359c-5.916-4.59-11.943-7.793-14.055-8.862v-3.646
			c0.43-0.958,0.785-2.001,1.057-3.13c1.57-0.565,2.43-2.872,3.007-4.91c0.772-2.713,0.688-4.616-0.222-5.671
			c0.957-5.217,0.527-9.059-1.265-11.429c-0.944-1.239-2.05-1.768-2.786-2c-0.527-0.737-1.596-1.977-3.4-2.971
			c-1.866-1.104-3.965-1.657-6.273-1.657c-0.417,0-0.834,0.024-1.203,0.049c-1.031,0.049-2.05,0.246-3.056,0.576
			c-0.013,0-0.024,0.013-0.038,0.013c-1.104,0.381-2.185,0.933-3.228,1.646c-1.191,0.761-2.283,1.67-3.229,2.675
			c-1.854,1.903-3.082,4.051-3.608,6.346c-0.504,1.903-0.541,3.818-0.124,5.697c-0.222,0.159-0.417,0.343-0.589,0.565
			c-0.847,1.117-0.885,2.872-0.135,5.536c0.515,1.841,1.203,3.719,2.368,4.566c0.345,1.767,0.92,3.376,1.694,4.8v2.958
			c-2.111,1.068-8.138,4.26-14.055,8.863c-2.541,1.977-4.063,5.094-4.063,8.359v3.191c0,2.307,1.877,4.173,4.173,4.173h48.917
			C60.754,65.507,62.632,63.629,62.632,61.32L62.632,61.32z M8.363,61.32v-3.191c0-2.332,1.081-4.564,2.896-5.979
			c6.384-4.946,12.877-8.211,14.117-8.813c0.688-0.331,1.118-1.02,1.118-1.792v-3.989c0-0.271-0.074-0.527-0.209-0.762
			c-0.81-1.375-1.375-3.02-1.657-4.898c-0.098-0.601-0.54-1.08-1.117-1.228c-0.16-0.184-0.614-0.847-1.19-2.896
			c-0.479-1.694-0.442-2.48-0.392-2.762c0.478,0.024,0.957-0.196,1.264-0.577c0.319-0.405,0.405-0.944,0.233-1.424
			c-0.639-1.78-0.712-3.609-0.221-5.475c0.418-1.792,1.375-3.462,2.861-4.983c0.797-0.86,1.718-1.608,2.7-2.234
			c0.012-0.012,0.037-0.024,0.049-0.037c0.822-0.576,1.682-1.006,2.528-1.301c0.012,0,0.025-0.012,0.025-0.012
			c0.724-0.245,1.472-0.38,2.258-0.417c2.147-0.185,4.075,0.22,5.781,1.215c1.866,1.031,2.627,2.382,2.627,2.382
			c0.233,0.479,0.649,0.761,1.19,0.798c0.036,0,0.834,0.123,1.521,1.092c0.725,1.032,1.755,3.683,0.467,9.87
			c-0.146,0.687,0.208,1.374,0.835,1.669c0.062,0.22,0.16,0.969-0.368,2.835c-0.467,1.645-0.848,2.394-1.068,2.725
			c-0.282-0.048-0.577-0.023-0.848,0.099c-0.466,0.196-0.81,0.625-0.896,1.116c-0.259,1.474-0.675,2.8-1.216,3.929
			c-0.098,0.208-0.147,0.43-0.147,0.65v4.615c0,0.773,0.431,1.448,1.118,1.792c1.238,0.603,7.732,3.879,14.104,8.813
			c1.817,1.412,2.897,3.646,2.897,5.978v3.192c0,0.639-0.526,1.167-1.166,1.167H9.542C8.891,62.5,8.363,61.971,8.363,61.32
			L8.363,61.32z"/>
	</g>
</g>
</svg>
