<?xml version="1.0" encoding="utf-8"?>
<!-- Generator: Adobe Illustrator 16.0.0, SVG Export Plug-In . SVG Version: 6.00 Build 0)  -->
<!DOCTYPE svg PUBLIC "-//W3C//DTD SVG 1.1//EN" "http://www.w3.org/Graphics/SVG/1.1/DTD/svg11.dtd">
<svg version="1.1" id="Layer_1" xmlns="http://www.w3.org/2000/svg" xmlns:xlink="http://www.w3.org/1999/xlink" x="0px" y="0px"
	 width="51.351px" height="60.677px" viewBox="-75.824 36.414 51.351 60.677" enable-background="new -75.824 36.414 51.351 60.677"
	 xml:space="preserve">
<path fill="#FFFFFF" d="M-26.286,78.805c-0.43-0.391-0.887-0.703-1.328-1.005c-1.429-0.976-2.776-1.897-3.098-5.788
	c-0.681-8.259-1.998-19.864-5.554-25.263c-2.586-3.931-5.676-6.104-9.946-6.894c-0.494-1.985-2.069-3.441-3.937-3.441
	c-1.868,0-3.444,1.458-3.939,3.443c-4.267,0.791-7.357,2.965-9.945,6.893c-3.559,5.411-4.874,17.009-5.554,25.263
	c-0.318,3.892-1.666,4.813-3.094,5.787c-0.441,0.303-0.898,0.614-1.329,1.005c-1.913,1.739-1.845,4.657-1.8,6.588
	c0.005,0.241,0.011,0.463,0.011,0.664c0,0.88,0.713,1.593,1.593,1.593h18.068v3.45c0,3.304,2.687,5.991,5.988,5.991
	c3.301,0,5.988-2.688,5.988-5.991v-3.45h18.068c0.881,0,1.593-0.713,1.593-1.593c0-0.201,0.006-0.428,0.013-0.67
	C-24.444,83.457-24.375,80.543-26.286,78.805z M-47.347,91.1c0,1.547-1.257,2.805-2.802,2.805s-2.802-1.258-2.802-2.805v-3.45h5.604
	V91.1z M-72.636,84.464c-0.001-1.218,0.103-2.694,0.77-3.302c0.267-0.241,0.599-0.469,0.984-0.73
	c1.701-1.162,4.03-2.754,4.472-8.158c0.375-4.555,1.517-18.415,5.04-23.772c2.711-4.116,5.82-5.745,11.086-5.81
	c0.017,0,0.034,0,0.05,0c0.058,0.001,0.116,0.001,0.173,0c0.019,0,0.037,0,0.055,0.001c5.265,0.065,8.373,1.692,11.079,5.81
	c3.521,5.344,4.665,19.215,5.041,23.773c0.447,5.402,2.775,6.992,4.475,8.154c0.385,0.264,0.717,0.49,0.983,0.732
	c0.667,0.607,0.77,2.084,0.769,3.302H-72.636z"/>
</svg>
