<?xml version="1.0" encoding="utf-8"?>
<!-- Generator: Adobe Illustrator 16.0.0, SVG Export Plug-In . SVG Version: 6.00 Build 0)  -->
<!DOCTYPE svg PUBLIC "-//W3C//DTD SVG 1.1//EN" "http://www.w3.org/Graphics/SVG/1.1/DTD/svg11.dtd">
<svg version="1.1" id="Layer_1" xmlns="http://www.w3.org/2000/svg" xmlns:xlink="http://www.w3.org/1999/xlink" x="0px" y="0px"
	 width="25px" height="25px" viewBox="0 0 59 45" enable-background="new 0 0 59 45" xml:space="preserve">
<g display="none">
	<path display="inline" fill="#4B4B4B" d="M49.414,40.459v-2.221c0-2.262-1.058-4.438-2.826-5.813
		c-4.115-3.193-8.307-5.422-9.776-6.165v-2.535c0.299-0.665,0.546-1.392,0.734-2.177c1.093-0.393,1.69-1.998,2.092-3.415
		c0.538-1.887,0.478-3.21-0.153-3.945c0.666-3.628,0.367-6.301-0.879-7.947c-0.658-0.863-1.426-1.229-1.938-1.393
		c-0.367-0.513-1.11-1.374-2.365-2.066c-1.297-0.768-2.757-1.152-4.362-1.152c-0.291,0-0.581,0.017-0.837,0.034
		c-0.717,0.035-1.426,0.171-2.125,0.401c-0.009,0-0.018,0.009-0.026,0.009c-0.768,0.265-1.52,0.648-2.245,1.144
		c-0.828,0.529-1.588,1.162-2.245,1.861c-1.29,1.323-2.143,2.817-2.51,4.415c-0.351,1.322-0.375,2.654-0.086,3.961
		c-0.153,0.11-0.29,0.239-0.409,0.393c-0.589,0.776-0.615,1.998-0.094,3.851c0.358,1.28,0.836,2.587,1.647,3.176
		c0.24,1.229,0.641,2.348,1.179,3.339v2.057c-1.469,0.743-5.661,2.963-9.776,6.165c-1.767,1.375-2.826,3.543-2.826,5.814v2.22
		c0,1.604,1.306,2.902,2.902,2.902h34.023C48.107,43.37,49.414,42.063,49.414,40.459L49.414,40.459z M11.668,40.459v-2.221
		c0-1.622,0.751-3.176,2.015-4.157c4.439-3.44,8.956-5.712,9.818-6.13c0.478-0.23,0.777-0.708,0.777-1.246V23.93
		c0-0.188-0.052-0.367-0.146-0.529c-0.563-0.956-0.956-2.1-1.152-3.406c-0.068-0.418-0.375-0.752-0.777-0.854
		c-0.11-0.127-0.427-0.589-0.828-2.015c-0.333-1.178-0.307-1.725-0.273-1.921c0.333,0.018,0.666-0.137,0.879-0.401
		c0.221-0.281,0.282-0.657,0.162-0.99c-0.444-1.238-0.495-2.51-0.153-3.808c0.29-1.247,0.956-2.407,1.989-3.467
		c0.555-0.598,1.195-1.118,1.879-1.554c0.008-0.009,0.025-0.017,0.034-0.025c0.572-0.401,1.17-0.7,1.759-0.905
		c0.008,0,0.018-0.008,0.018-0.008c0.503-0.171,1.024-0.265,1.571-0.291c1.494-0.128,2.834,0.154,4.021,0.845
		c1.298,0.718,1.827,1.657,1.827,1.657c0.162,0.333,0.452,0.529,0.828,0.555c0.026,0,0.581,0.086,1.059,0.76
		c0.503,0.717,1.221,2.562,0.324,6.864c-0.103,0.479,0.145,0.957,0.581,1.161c0.042,0.154,0.111,0.674-0.256,1.973
		c-0.324,1.144-0.589,1.665-0.742,1.896c-0.196-0.035-0.402-0.017-0.59,0.068c-0.324,0.137-0.563,0.435-0.623,0.776
		c-0.179,1.025-0.469,1.947-0.845,2.732c-0.068,0.146-0.103,0.299-0.103,0.452v3.211c0,0.538,0.299,1.007,0.777,1.246
		c0.862,0.418,5.379,2.698,9.81,6.13c1.264,0.981,2.015,2.535,2.015,4.157v2.221c0,0.444-0.367,0.811-0.811,0.811H12.488
		C12.036,41.278,11.668,40.911,11.668,40.459L11.668,40.459z M11.668,40.459"/>
</g>
<g display="none">
	<path display="inline" fill="#4B4B4B" d="M50.563,6.448H8.436c-0.554,0-1.004,0.45-1.004,1.004v30.094
		c0,0.554,0.45,1.004,1.004,1.004h42.128c0.554,0,1.004-0.45,1.004-1.004V7.452C51.567,6.898,51.117,6.448,50.563,6.448
		L50.563,6.448z M49.564,34.117L37.138,21.69l-1.42,1.416l13.435,13.436H9.852l13.43-13.436l-1.416-1.416L9.44,34.117V8.456h40.124
		V34.117z M49.564,34.117"/>
	<path display="inline" fill="#4B4B4B" d="M47.537,8.456L29.503,26.491L11.468,8.456H9.44v0.809l19.352,19.352
		c0.392,0.393,1.024,0.393,1.416,0L49.564,9.265V8.456H47.537z M47.537,8.456"/>
</g>
<g>
	<g>
		<path fill="#4C4B4C" d="M15.404,19.642c-1.543-1.543-4.068-1.543-5.611,0s-1.543,4.068,0,5.611c1.542,1.541,4.068,1.543,5.611,0
			S16.945,21.183,15.404,19.642z M14.002,21.044c0.771,0.771,0.771,2.033-0.001,2.805s-2.034,0.771-2.806,0
			c-0.771-0.771-0.771-2.033,0-2.805C11.968,20.272,13.23,20.272,14.002,21.044z"/>
		<path fill="#4C4B4C" d="M14.843,31.913c0.736,0.246,1.543,0.352,2.454,0.352c2.174,0,4.138-0.701,5.821-2.033
			c0.035-0.035,0.035-0.035,0.07-0.07c0.351-0.35,0.386-0.947,0.069-1.332c-0.35-0.422-0.981-0.492-1.402-0.141
			c-1.297,1.086-2.875,1.613-4.559,1.613c-0.736,0.035-1.367-0.035-1.893-0.211c-0.527-0.176-1.052,0.141-1.228,0.666
			C14.037,31.319,14.317,31.88,14.843,31.913z"/>
		<path fill="#4C4B4C" d="M6.322,33.001c5.786,5.785,15.252,5.785,21.039,0c1.367-1.367,2.456-2.943,3.155-4.629h5.892
			c0.175-0.035,0.35-0.068,0.525-0.174l0.912-0.633l0.912,0.633c0.14,0.139,0.315,0.176,0.525,0.174h1.963
			c0.141,0,0.316-0.035,0.492-0.139l1.963-1.193l1.964,1.193c0.141,0.07,0.28,0.139,0.491,0.139h3.717
			c1.018,0.037,2.033-0.35,2.805-1.121l4.103-4.104c0.386-0.385,0.387-1.016,0-1.402l-4.103-4.102
			c-0.701-0.701-1.752-1.123-2.805-1.123l-19.531-0.035c-0.736-1.648-1.754-3.154-3.086-4.488c-5.786-5.785-15.254-5.785-21.039,0
			C0.431,17.784,0.536,27.216,6.322,33.001z M31.078,26.409c0.701-2.594,0.666-5.365-0.035-7.959l18.9,0.104
			c0.525,0.035,1.051,0.211,1.401,0.563l3.401,3.4l-3.365,3.367c-0.246,0.244-0.703,0.561-1.367,0.525h-3.508l-2.279-1.367
			c-0.35-0.211-0.736-0.176-1.051,0l-2.279,1.367h-1.403l-1.157-0.807c-0.351-0.211-0.771-0.211-1.121,0l-1.229,0.807H31.078z
			 M7.584,31.669C2.57,26.653,2.57,18.45,7.585,13.437c5.015-5.016,13.219-5.016,18.233-0.002c1.228,1.229,2.174,2.666,2.805,4.209
			c0.07,0.139,0.105,0.244,0.176,0.385c1.718,4.594,0.736,9.924-2.945,13.605C20.84,36.647,12.635,36.647,7.584,31.669z"/>
	</g>
</g>
<g display="none">
	<g display="inline">
		<path fill="#0B1017" d="M51.477,21.014L38.031,7.566c-0.82-0.82-2.15-0.82-2.971,0s-0.82,2.152,0,2.973l9.859,9.859H9.008
			c-1.16,0-2.102,0.941-2.102,2.102c0,1.158,0.941,2.1,2.102,2.1H44.92l-9.859,9.861c-0.82,0.82-0.82,2.148,0,2.971
			c0.41,0.41,0.947,0.615,1.484,0.615s1.076-0.205,1.486-0.615l13.445-13.445C52.299,23.164,52.299,21.834,51.477,21.014z"/>
	</g>
</g>
</svg>
