<?xml version="1.0" encoding="utf-8"?>
<!-- Generator: Adobe Illustrator 16.0.0, SVG Export Plug-In . SVG Version: 6.00 Build 0)  -->
<!DOCTYPE svg PUBLIC "-//W3C//DTD SVG 1.1//EN" "http://www.w3.org/Graphics/SVG/1.1/DTD/svg11.dtd">
<svg version="1.1" id="Layer_1" xmlns="http://www.w3.org/2000/svg" xmlns:xlink="http://www.w3.org/1999/xlink" x="0px" y="0px"
	 width="112px" height="112px" viewBox="0 0 112 112" enable-background="new 0 0 112 112" xml:space="preserve">
<g>
	<path fill="#6CC285" d="M111.199,56c0,30.485-24.714,55.199-55.199,55.199S0.801,86.485,0.801,56S25.515,0.801,56,0.801
		S111.199,25.515,111.199,56L111.199,56z M111.199,56"/>
	<path fill="#FFFFFF" d="M84.553,56l-41.87,28.552V27.446L84.553,56z M84.553,56"/>
	<path fill="#FFFFFF" d="M42.683,86.458c-0.307,0-0.615-0.075-0.893-0.223c-0.624-0.325-1.014-0.976-1.014-1.682V27.446
		c0-0.706,0.39-1.347,1.014-1.682c0.622-0.325,1.375-0.288,1.96,0.113l41.881,28.552c0.511,0.352,0.827,0.94,0.827,1.571
		c0,0.632-0.316,1.218-0.827,1.57L43.75,86.123C43.425,86.346,43.053,86.458,42.683,86.458L42.683,86.458z M44.576,31.054v49.901
		L81.179,56L44.576,31.054z M44.576,31.054"/>
</g>
</svg>
