<?xml version="1.0" encoding="utf-8"?>
<!-- Generator: Adobe Illustrator 16.0.0, SVG Export Plug-In . SVG Version: 6.00 Build 0)  -->
<!DOCTYPE svg PUBLIC "-//W3C//DTD SVG 1.1//EN" "http://www.w3.org/Graphics/SVG/1.1/DTD/svg11.dtd">
<svg version="1.1" id="Layer_1" xmlns="http://www.w3.org/2000/svg" xmlns:xlink="http://www.w3.org/1999/xlink" x="0px" y="0px"
	 width="413.5px" height="163px" viewBox="0 0 413.5 163" enable-background="new 0 0 413.5 163" xml:space="preserve">
<rect fill="#EAEAEA" width="413.5" height="163"/>
<g enable-background="new    ">
	<path fill="#439959" d="M169.811,127.79v11.96h-3.86v-28.66h8.1c1.813,0,3.38,0.184,4.7,0.55c1.32,0.367,2.41,0.897,3.27,1.591
		c0.86,0.693,1.497,1.529,1.91,2.51c0.413,0.979,0.62,2.076,0.62,3.29c0,1.013-0.16,1.96-0.48,2.84s-0.783,1.67-1.39,2.37
		s-1.347,1.297-2.22,1.79c-0.874,0.493-1.864,0.866-2.97,1.12c0.48,0.279,0.907,0.687,1.28,1.22l8.36,11.38h-3.44
		c-0.707,0-1.227-0.273-1.56-0.82l-7.44-10.239c-0.227-0.32-0.474-0.551-0.74-0.69s-0.667-0.21-1.2-0.21H169.811z M169.811,124.97
		h4.06c1.133,0,2.13-0.137,2.99-0.41c0.86-0.272,1.58-0.659,2.16-1.159c0.58-0.5,1.017-1.097,1.31-1.79
		c0.293-0.693,0.44-1.46,0.44-2.301c0-1.706-0.563-2.993-1.69-3.859c-1.126-0.867-2.803-1.3-5.03-1.3h-4.24V124.97z"/>
	<path fill="#439959" d="M198.771,119.17c1.213,0,2.333,0.203,3.36,0.61c1.027,0.406,1.913,0.993,2.66,1.76
		c0.747,0.767,1.33,1.714,1.75,2.84c0.42,1.127,0.63,2.41,0.63,3.851c0,0.56-0.06,0.933-0.18,1.119
		c-0.12,0.188-0.347,0.28-0.68,0.28h-13.48c0.026,1.28,0.2,2.394,0.52,3.34c0.32,0.947,0.76,1.737,1.32,2.37
		c0.56,0.634,1.227,1.107,2,1.42c0.773,0.313,1.64,0.471,2.6,0.471c0.893,0,1.663-0.104,2.31-0.311
		c0.646-0.206,1.203-0.43,1.67-0.67s0.856-0.463,1.17-0.67s0.583-0.311,0.81-0.311c0.293,0,0.52,0.114,0.68,0.341l1,1.3
		c-0.44,0.533-0.967,0.997-1.58,1.39c-0.613,0.394-1.27,0.717-1.97,0.97c-0.7,0.254-1.423,0.444-2.17,0.57
		c-0.747,0.127-1.487,0.19-2.22,0.19c-1.4,0-2.69-0.237-3.87-0.71c-1.18-0.474-2.2-1.167-3.06-2.08s-1.53-2.043-2.01-3.391
		c-0.48-1.346-0.72-2.893-0.72-4.64c0-1.413,0.217-2.733,0.65-3.96s1.057-2.29,1.87-3.19c0.813-0.899,1.807-1.606,2.98-2.119
		C195.984,119.427,197.304,119.17,198.771,119.17z M198.851,121.79c-1.72,0-3.073,0.497-4.06,1.49s-1.6,2.37-1.84,4.13h11.02
		c0-0.827-0.114-1.583-0.34-2.271c-0.227-0.687-0.56-1.279-1-1.779c-0.44-0.5-0.977-0.887-1.61-1.16S199.664,121.79,198.851,121.79z
		"/>
	<path fill="#439959" d="M226.59,139.75h-1.58c-0.347,0-0.627-0.053-0.84-0.16c-0.213-0.106-0.354-0.333-0.42-0.68l-0.4-1.88
		c-0.533,0.479-1.053,0.91-1.56,1.29s-1.04,0.699-1.601,0.96c-0.56,0.26-1.156,0.457-1.789,0.59c-0.634,0.133-1.338,0.2-2.11,0.2
		c-0.787,0-1.523-0.11-2.21-0.33c-0.688-0.221-1.283-0.55-1.79-0.99s-0.91-0.996-1.21-1.67c-0.3-0.673-0.45-1.47-0.45-2.39
		c0-0.801,0.22-1.57,0.66-2.311s1.149-1.396,2.13-1.97s2.264-1.043,3.85-1.41c1.587-0.366,3.527-0.576,5.82-0.63v-1.58
		c0-1.573-0.337-2.763-1.01-3.57c-0.674-0.807-1.67-1.21-2.99-1.21c-0.867,0-1.597,0.11-2.189,0.33
		c-0.594,0.22-1.107,0.467-1.541,0.74c-0.433,0.273-0.807,0.52-1.119,0.74c-0.313,0.22-0.623,0.33-0.93,0.33
		c-0.24,0-0.451-0.063-0.631-0.19s-0.323-0.283-0.43-0.47l-0.641-1.141c1.121-1.08,2.327-1.886,3.621-2.42
		c1.293-0.533,2.727-0.8,4.3-0.8c1.133,0,2.14,0.187,3.02,0.561c0.88,0.373,1.62,0.893,2.22,1.56c0.601,0.667,1.054,1.474,1.36,2.42
		c0.307,0.947,0.46,1.987,0.46,3.12V139.75z M217.35,137.57c0.627,0,1.2-0.063,1.721-0.19c0.52-0.126,1.01-0.307,1.47-0.54
		s0.899-0.517,1.319-0.85c0.421-0.333,0.83-0.713,1.23-1.141v-4.22c-1.64,0.054-3.033,0.184-4.18,0.39
		c-1.146,0.207-2.08,0.478-2.801,0.811c-0.719,0.333-1.242,0.727-1.569,1.18c-0.327,0.454-0.49,0.96-0.49,1.521
		c0,0.533,0.087,0.993,0.261,1.38c0.173,0.387,0.406,0.703,0.699,0.95c0.293,0.246,0.641,0.427,1.04,0.54
		C216.45,137.514,216.883,137.57,217.35,137.57z"/>
	<path fill="#439959" d="M246.25,139.75c-0.507,0-0.827-0.246-0.96-0.74l-0.32-2.46c-0.866,1.054-1.856,1.897-2.97,2.53
		c-1.113,0.634-2.391,0.95-3.83,0.95c-1.16,0-2.213-0.224-3.16-0.67c-0.947-0.447-1.754-1.104-2.42-1.971
		c-0.667-0.866-1.18-1.946-1.54-3.239c-0.36-1.294-0.54-2.78-0.54-4.46c0-1.493,0.2-2.884,0.6-4.171
		c0.4-1.286,0.977-2.402,1.73-3.35c0.753-0.946,1.67-1.689,2.75-2.229s2.307-0.811,3.68-0.811c1.24,0,2.301,0.21,3.18,0.63
		c0.881,0.42,1.667,1.01,2.361,1.771v-11.24h3.559v29.46H246.25z M239.35,137.15c1.16,0,2.177-0.267,3.051-0.801
		c0.873-0.533,1.676-1.286,2.41-2.26v-9.8c-0.654-0.88-1.371-1.497-2.15-1.85c-0.78-0.354-1.644-0.53-2.59-0.53
		c-1.895,0-3.348,0.673-4.36,2.02c-1.014,1.348-1.521,3.268-1.521,5.761c0,1.319,0.113,2.449,0.34,3.39
		c0.227,0.939,0.561,1.713,1,2.32c0.44,0.606,0.98,1.05,1.621,1.33C237.79,137.01,238.523,137.15,239.35,137.15z"/>
</g>
<g>
	<path fill="#439959" d="M206.75,44.438c-7.618,0-13.813,6.196-13.813,13.813s6.195,13.813,13.813,13.813
		c7.617,0,13.813-6.196,13.813-13.813S214.367,44.438,206.75,44.438z M206.75,67.752c-5.239,0-9.501-4.263-9.501-9.502
		c0-5.238,4.261-9.5,9.501-9.5s9.5,4.261,9.5,9.5C216.25,63.49,211.988,67.752,206.75,67.752z"/>
	<path fill="#439959" d="M245.805,53.905c-5.742-5.623-21.041-18.7-39.055-18.7c-18.015,0-33.313,13.078-39.055,18.7
		c-1.18,1.156-1.83,2.698-1.83,4.345c-0.001,1.647,0.648,3.191,1.83,4.347c5.741,5.623,21.038,18.699,39.055,18.699
		c18.014,0,33.313-13.077,39.057-18.7c1.18-1.156,1.828-2.699,1.828-4.347C247.635,56.604,246.984,55.061,245.805,53.905z
		 M242.789,59.515c-5.365,5.253-19.613,17.47-36.039,17.47c-16.429,0-30.675-12.217-36.038-17.47
		c-0.345-0.338-0.534-0.786-0.534-1.265c0-0.478,0.189-0.926,0.534-1.263c5.363-5.254,19.611-17.47,36.038-17.47
		c16.426,0,30.674,12.216,36.039,17.47c0.344,0.337,0.533,0.785,0.533,1.263C243.324,58.729,243.133,59.177,242.789,59.515z"/>
</g>
</svg>
