<?xml version="1.0" encoding="utf-8"?>
<!-- Generator: Adobe Illustrator 16.0.0, SVG Export Plug-In . SVG Version: 6.00 Build 0)  -->
<!DOCTYPE svg PUBLIC "-//W3C//DTD SVG 1.1//EN" "http://www.w3.org/Graphics/SVG/1.1/DTD/svg11.dtd">
<svg version="1.1" id="Layer_1" xmlns="http://www.w3.org/2000/svg" xmlns:xlink="http://www.w3.org/1999/xlink" x="0px" y="0px"
	 width="416px" height="208.485px" viewBox="0.75 0.75 416 208.485" enable-background="new 0.75 0.75 416 208.485"
	 xml:space="preserve">
<path fill="#FFFFFF" d="M318.018,50.25c-26.754-30.349-65.914-49.5-109.554-49.5c-43.639,0-82.798,19.151-109.552,49.5H318.018z"/>
<image display="none" overflow="visible" enable-background="new    " width="1242" height="2208" xlink:href="FEC76DC5.jpeg"  transform="matrix(1 0 0 1 -413.5002 -1999.75)">
</image>
<rect x="0.5" y="45.25" fill="#EAEAEA" width="416" height="163.985"/>
<text transform="matrix(1 0 0 1 163.8206 185)" fill="#439959" font-family="'Lato-Regular'" font-size="40">Read</text>
<g>
	<path fill="#439959" d="M207.709,89.856c-7.461,0-13.531,6.069-13.531,13.531c0,7.462,6.07,13.531,13.531,13.531
		c7.462,0,13.532-6.069,13.532-13.531C221.241,95.925,215.171,89.856,207.709,89.856z M207.709,112.694
		c-5.131,0-9.307-4.177-9.307-9.308c0-5.131,4.175-9.307,9.307-9.307c5.132,0,9.307,4.175,9.307,9.307
		C217.016,108.52,212.841,112.694,207.709,112.694z"/>
	<path fill="#439959" d="M245.966,99.13c-5.624-5.508-20.61-18.318-38.256-18.318c-17.646,0-32.633,12.812-38.257,18.319
		c-1.156,1.131-1.792,2.642-1.792,4.255c-0.001,1.613,0.636,3.125,1.792,4.258c5.624,5.508,20.609,18.317,38.257,18.317
		c17.647,0,32.634-12.811,38.258-18.318c1.156-1.133,1.793-2.644,1.792-4.257C247.76,101.773,247.123,100.263,245.966,99.13z
		 M243.011,104.626c-5.254,5.146-19.212,17.111-35.302,17.111c-16.092,0-30.048-11.966-35.301-17.111
		c-0.338-0.331-0.524-0.771-0.524-1.239s0.186-0.907,0.523-1.237c5.254-5.146,19.211-17.113,35.302-17.113
		c16.089,0,30.048,11.967,35.302,17.113c0.338,0.331,0.523,0.77,0.523,1.237C243.536,103.854,243.349,104.295,243.011,104.626z"/>
</g>
</svg>
