<?xml version="1.0" encoding="utf-8"?>
<!-- Generator: Adobe Illustrator 16.0.0, SVG Export Plug-In . SVG Version: 6.00 Build 0)  -->
<!DOCTYPE svg PUBLIC "-//W3C//DTD SVG 1.1//EN" "http://www.w3.org/Graphics/SVG/1.1/DTD/svg11.dtd">
<svg version="1.1" id="Layer_1" xmlns="http://www.w3.org/2000/svg" xmlns:xlink="http://www.w3.org/1999/xlink" x="0px" y="0px"
	 width="339px" height="339px" viewBox="0 0 339 339" enable-background="new 0 0 339 339" xml:space="preserve">
<circle fill-rule="evenodd" clip-rule="evenodd" fill="#C2E2C8" cx="177.804" cy="177.637" r="159.874"/>
<g>
	<path fill-rule="evenodd" clip-rule="evenodd" fill="#8B8B8B" d="M324.131,157.796c-0.311-0.922-0.062-1.873-0.142-2.81
		c0-0.539,0-1.077,0-1.615c-0.064-4.37-0.084-8.759-0.657-13.084c-2.27-17.123-7.334-33.423-14.936-48.921
		c-3.745-7.635-8.098-14.921-13.016-21.869c-5.026-7.1-10.608-13.73-16.667-19.964c-3.653-3.758-7.524-7.281-11.521-10.666
		c-9.258-7.837-19.292-14.521-30.066-20.081c-8.572-4.423-17.468-8.07-26.698-10.891c-12.63-3.86-25.473-6.392-38.746-6.265
		c-0.455,0-0.91,0-1.365,0c-0.613,0-1.226,0-1.839,0c-0.594-0.073-1.211,0.158-1.787-0.142c-1.793,0-3.587,0-5.38,0
		c-1.208,0.305-2.439,0.063-3.658,0.142c-1.046-0.073-2.103,0.159-3.137-0.142c-0.285,0-0.567,0-0.851,0
		c-1.532,0.211-3.076,0.219-4.617,0.283c-2.967,0.124-5.95,0.131-8.889,0.54c-10.775,1.499-21.289,4.075-31.551,7.709
		C96.319,14.373,84.72,20.104,73.831,27.254c-12.364,8.12-23.417,17.753-33.191,28.878c-9.081,10.336-16.708,21.64-22.912,33.898
		c-4.181,8.261-7.612,16.839-10.277,25.718c-3.718,12.385-6.133,24.973-5.986,37.966c0,0.622,0,1.245,0,1.868
		c0,0.563,0,1.125,0,1.689c-0.08,1.212,0.168,2.436-0.142,3.639c0,1.889,0,3.777,0,5.663c0.299,0.572,0.068,1.187,0.142,1.775
		c0,0.456,0,0.912,0,1.369c0,0.528,0,1.059,0,1.587c-0.015,1.318,0.099,2.635,0.122,3.949c0.1,5.694,0.697,11.325,1.764,16.919
		c3.299,17.294,9.305,33.592,17.896,48.95c7.111,12.714,15.905,24.165,26.08,34.563c3.197,3.268,6.615,6.309,10.079,9.297
		c8.607,7.423,17.923,13.823,27.917,19.211c9.778,5.271,19.959,9.615,30.629,12.789c12.725,3.785,25.657,6.177,38.984,6.04
		c0.473,0,0.947,0,1.42,0c0.67,0,1.341,0,2.012,0c2.82,0,5.64,0,8.463,0c0.588,0,1.173,0,1.762,0c0.552,0,1.106,0,1.66,0
		c4.209-0.017,8.42-0.161,12.607-0.52c6.257-0.535,12.402-1.83,18.498-3.306c14.439-3.494,28.087-9.006,41.042-16.257
		c12.795-7.159,24.315-16.018,34.756-26.285c3.83-3.77,7.401-7.787,10.838-11.923c7.872-9.475,14.493-19.762,20.019-30.76
		c3.925-7.813,7.137-15.917,9.726-24.268c3.911-12.626,6.394-25.484,6.254-38.765c0-0.622,0-1.246,0-1.869c0-0.563,0-1.126,0-1.689
		c0.079-1.213-0.169-2.438,0.142-3.64C324.131,161.761,324.131,159.78,324.131,157.796z M162.597,310.708
		C80.469,310.61,13.741,244.041,13.771,162.237c0.03-81.814,66.827-148.336,148.942-148.329
		c82.202,0.006,148.987,66.557,148.969,148.443C311.662,244.186,244.718,310.805,162.597,310.708z"/>
	<path fill-rule="evenodd" clip-rule="evenodd" fill="#8B8B8B" d="M167.017,178.358c26.194,0.352,52.744,10.309,75.484,30.264
		c4.171,3.661,4.65,9.445,1.159,13.372c-3.57,4.017-9.321,4.281-13.53,0.553c-14.026-12.426-30.195-20.666-48.649-23.849
		c-32.227-5.563-60.834,2.468-85.616,23.877c-4.232,3.658-9.869,3.637-13.467-0.169c-3.561-3.767-3.404-9.636,0.486-13.193
		c7.522-6.881,15.833-12.657,24.883-17.35C125.079,182.886,143.498,178.4,167.017,178.358z"/>
	<path fill-rule="evenodd" clip-rule="evenodd" fill="#8B8B8B" d="M200.185,132.414c-10.33-0.015-18.696-8.353-18.662-18.598
		c0.036-10.272,8.405-18.587,18.701-18.579c10.317,0.008,18.62,8.311,18.618,18.618
		C218.841,124.159,210.526,132.429,200.185,132.414z"/>
	<path fill-rule="evenodd" clip-rule="evenodd" fill="#8B8B8B" d="M122.454,132.414c-10.324-0.045-18.643-8.381-18.606-18.647
		c0.037-10.255,8.431-18.555,18.742-18.529c10.348,0.025,18.676,8.444,18.603,18.807
		C141.122,124.207,132.705,132.459,122.454,132.414z"/>
</g>
</svg>
