<?xml version="1.0" encoding="utf-8"?>
<!-- Generator: Adobe Illustrator 16.0.0, SVG Export Plug-In . SVG Version: 6.00 Build 0)  -->
<!DOCTYPE svg PUBLIC "-//W3C//DTD SVG 1.1//EN" "http://www.w3.org/Graphics/SVG/1.1/DTD/svg11.dtd">
<svg version="1.1" id="Layer_1" xmlns="http://www.w3.org/2000/svg" xmlns:xlink="http://www.w3.org/1999/xlink" x="0px" y="0px"
	 width="59.262px" height="59.229px" viewBox="-241.995 48.116 59.262 59.229"
	 enable-background="new -241.995 48.116 59.262 59.229" xml:space="preserve">
<path fill="#FFFFFF" d="M-212.376,67.288c-5.77,0-10.446,4.677-10.446,10.446s4.677,10.447,10.446,10.447
	c5.771,0,10.447-4.678,10.447-10.447C-201.934,71.967-206.608,67.293-212.376,67.288z M-212.376,84.886
	c-3.949,0-7.151-3.202-7.151-7.151s3.202-7.15,7.151-7.15c3.95,0,7.151,3.201,7.151,7.15
	C-205.229,81.683-208.428,84.882-212.376,84.886z"/>
<path fill="#FFFFFF" d="M-186.794,71.186l-3.156-0.61c-0.403-1.266-0.913-2.495-1.524-3.675l1.862-2.652
	c1.361-1.938,1.131-4.572-0.544-6.245l-2.505-2.464c-1.673-1.676-4.308-1.904-6.245-0.543l-2.653,1.861
	c-1.18-0.611-2.409-1.121-3.674-1.523l-0.561-3.189c-0.408-2.332-2.436-4.031-4.803-4.028h-3.56
	c-2.347,0.011-4.354,1.694-4.77,4.005l-0.61,3.204c-1.266,0.403-2.495,0.913-3.675,1.524l-2.652-1.862
	c-1.937-1.36-4.572-1.131-6.245,0.544l-2.472,2.472c-1.708,1.675-1.945,4.344-0.56,6.294l1.861,2.653
	c-0.611,1.179-1.121,2.408-1.524,3.675l-3.188,0.561c-2.311,0.416-3.994,2.422-4.004,4.77v3.56c0,2.36,1.696,4.379,4.021,4.786
	l3.188,0.561c0.403,1.266,0.913,2.495,1.524,3.675l-1.862,2.652c-1.361,1.937-1.131,4.573,0.544,6.245l2.472,2.521
	c1.689,1.696,4.362,1.913,6.303,0.51l2.652-1.861c1.177,0.611,2.404,1.121,3.667,1.524l0.56,3.188
	c0.406,2.32,2.415,4.016,4.77,4.029h3.551c2.367,0.002,4.394-1.697,4.803-4.029l0.527-3.156c1.266-0.402,2.495-0.912,3.674-1.523
	l2.653,1.862c1.937,1.36,4.572,1.132,6.245-0.544l2.513-2.514c1.675-1.672,1.905-4.307,0.543-6.244l-1.862-2.653
	c0.612-1.179,1.122-2.408,1.525-3.675l3.188-0.56c2.344-0.391,4.062-2.419,4.062-4.795v-3.56
	C-182.748,73.59-184.462,71.577-186.794,71.186z M-186.037,79.515c0.003,0.767-0.546,1.425-1.302,1.557l-4.21,0.7
	c-0.632,0.109-1.143,0.576-1.31,1.195c-0.455,1.689-1.127,3.313-2.001,4.828c-0.323,0.554-0.293,1.246,0.073,1.771l2.472,3.484
	c0.445,0.627,0.372,1.484-0.173,2.027l-2.546,2.545c-0.534,0.533-1.37,0.611-1.994,0.189l-3.486-2.472
	c-0.525-0.366-1.216-0.396-1.771-0.073c-1.516,0.873-3.139,1.547-4.829,2.001c-0.619,0.167-1.085,0.679-1.194,1.311l-0.733,4.193
	c-0.133,0.759-0.795,1.31-1.565,1.302h-3.56c-0.766,0.004-1.424-0.547-1.557-1.302l-0.734-4.193
	c-0.091-0.651-0.561-1.186-1.194-1.359c-1.689-0.455-3.313-1.128-4.828-2.003c-0.554-0.321-1.246-0.293-1.771,0.075l-3.485,2.472
	c-0.628,0.441-1.482,0.369-2.026-0.174l-2.513-2.512c-0.533-0.534-0.611-1.37-0.189-1.994l2.471-3.485
	c0.367-0.525,0.396-1.217,0.074-1.771c-0.875-1.517-1.547-3.139-2.002-4.829c-0.167-0.619-0.678-1.085-1.31-1.194l-4.194-0.733
	c-0.745-0.143-1.283-0.798-1.276-1.557v-3.56c-0.01-0.762,0.528-1.422,1.276-1.564l4.194-0.734c0.636-0.102,1.154-0.565,1.326-1.187
	c0.455-1.689,1.128-3.313,2.002-4.827c0.322-0.555,0.293-1.246-0.074-1.771l-2.472-3.485c-0.446-0.627-0.373-1.483,0.173-2.026
	l2.513-2.537c0.542-0.547,1.399-0.619,2.026-0.174l3.485,2.472c0.526,0.367,1.217,0.396,1.771,0.075
	c1.516-0.877,3.139-1.549,4.828-2.003c0.619-0.167,1.085-0.679,1.194-1.31l0.742-4.17c0.133-0.754,0.791-1.305,1.558-1.301h3.56
	c0.758-0.006,1.414,0.531,1.557,1.276l0.7,4.21c0.11,0.633,0.576,1.144,1.195,1.311c1.689,0.454,3.313,1.127,4.827,2.002
	c0.555,0.322,1.247,0.293,1.772-0.074l3.485-2.472c0.627-0.446,1.484-0.372,2.027,0.173l2.562,2.514
	c0.545,0.542,0.619,1.398,0.173,2.025l-2.472,3.486c-0.367,0.525-0.396,1.217-0.074,1.771c0.875,1.516,1.548,3.138,2.002,4.828
	c0.167,0.618,0.679,1.084,1.311,1.193l4.202,0.741c0.755,0.133,1.305,0.791,1.301,1.558L-186.037,79.515z"/>
</svg>
