<?xml version="1.0" encoding="utf-8"?>
<!-- Generator: Adobe Illustrator 16.0.0, SVG Export Plug-In . SVG Version: 6.00 Build 0)  -->
<!DOCTYPE svg PUBLIC "-//W3C//DTD SVG 1.1//EN" "http://www.w3.org/Graphics/SVG/1.1/DTD/svg11.dtd">
<svg version="1.1" id="Layer_1" xmlns="http://www.w3.org/2000/svg" xmlns:xlink="http://www.w3.org/1999/xlink" x="0px" y="0px"
	 width="415px" height="209px" viewBox="0 0 415 209" enable-background="new 0 0 415 209" xml:space="preserve">
<rect x="0.75" y="45.25" fill="#439959" width="413.5" height="163"/>
<path fill="#439959" d="M317.052,50.25C290.298,19.901,251.139,0.75,207.5,0.75c-43.639,0-82.798,19.151-109.552,49.5H317.052z"/>
<g transform="translate(0,-952.36218)">
	<g>
		<path fill="#FFFFFF" d="M242.064,1018.377c-0.414,0.059-0.806,0.261-1.094,0.562l-70.021,70.022
			c-0.728,0.691-0.748,1.989-0.042,2.703c0.705,0.713,2.003,0.707,2.703-0.012l16.648-16.647c5.333,1.945,11.057,3.017,17.031,3.017
			c16.932,0,31.954-8.521,41.279-21.616c0.465-0.64,0.465-1.579,0-2.217c-5.248-7.369-12.312-13.247-20.491-17.004l15.555-15.554
			c0.582-0.547,0.755-1.482,0.409-2.202C243.693,1018.708,242.855,1018.263,242.064,1018.377z M207.29,1032.599
			c-16.933,0-31.954,8.492-41.28,21.588c-0.464,0.638-0.464,1.577,0,2.217c4.471,6.276,10.273,11.487,16.943,15.228l2.81-2.808
			c-6.154-3.281-11.542-7.899-15.791-13.515c8.706-11.513,22.148-18.924,37.318-18.924c3.371,0,6.649,0.398,9.817,1.093l3.134-3.135
			C216.1,1033.226,211.771,1032.599,207.29,1032.599z M225.21,1040.052c7.672,3.269,14.336,8.563,19.397,15.258
			c-8.705,11.505-22.155,18.926-37.317,18.926c-4.895,0-9.612-0.782-14.046-2.218l6.12-6.121c2.213,1.668,4.95,2.66,7.926,2.66
			c7.293,0,13.248-5.952,13.248-13.248c0-2.975-0.994-5.713-2.661-7.924L225.21,1040.052z M207.29,1042.062
			c-7.294,0-13.249,5.953-13.249,13.247c0,1.565,0.268,3.069,0.77,4.465l3.135-3.135c-0.061-0.434-0.118-0.879-0.118-1.33
			c0-5.248,4.214-9.461,9.463-9.461c0.451,0,0.896,0.056,1.331,0.118l3.135-3.136
			C210.357,1042.328,208.855,1042.062,207.29,1042.062z M215.186,1050.077c0.99,1.495,1.567,3.297,1.567,5.232
			c0,5.249-4.214,9.463-9.463,9.463c-1.936,0-3.737-0.577-5.234-1.567L215.186,1050.077z"/>
	</g>
</g>
<g enable-background="new    ">
	<path fill="#FFFFFF" d="M144.87,181.838c1.187,0,2.247-0.2,3.18-0.6c0.933-0.4,1.723-0.96,2.37-1.681
		c0.646-0.72,1.14-1.58,1.48-2.58c0.34-1,0.51-2.1,0.51-3.3v-17.42h3.86v17.42c0,1.653-0.264,3.188-0.79,4.601
		c-0.527,1.413-1.28,2.637-2.26,3.67s-2.177,1.843-3.59,2.43s-3,0.88-4.76,0.88c-1.76,0-3.347-0.293-4.76-0.88
		s-2.613-1.396-3.6-2.43s-1.743-2.257-2.27-3.67c-0.527-1.413-0.79-2.947-0.79-4.601v-17.42h3.86v17.4c0,1.2,0.17,2.3,0.51,3.3
		c0.34,1,0.833,1.86,1.48,2.58c0.647,0.72,1.44,1.283,2.38,1.689C142.62,181.635,143.683,181.838,144.87,181.838z"/>
	<path fill="#FFFFFF" d="M162.37,184.918v-20.26h2.12c0.506,0,0.827,0.247,0.96,0.74l0.28,2.199c0.88-0.973,1.863-1.76,2.95-2.359
		c1.086-0.601,2.343-0.9,3.77-0.9c1.106,0,2.083,0.184,2.93,0.55c0.846,0.367,1.553,0.887,2.12,1.561
		c0.567,0.673,0.997,1.483,1.29,2.43c0.293,0.947,0.44,1.993,0.44,3.14v12.9h-3.56v-12.9c0-1.533-0.35-2.723-1.05-3.569
		c-0.7-0.847-1.77-1.271-3.21-1.271c-1.053,0-2.037,0.254-2.95,0.76c-0.913,0.508-1.757,1.194-2.53,2.061v14.92H162.37z"/>
	<path fill="#FFFFFF" d="M183.69,171.418h9.88v3.02h-9.88V171.418z"/>
	<path fill="#FFFFFF" d="M203.31,172.958v11.96h-3.86v-28.66h8.1c1.813,0,3.38,0.184,4.701,0.55c1.319,0.367,2.409,0.897,3.27,1.591
		c0.859,0.693,1.496,1.529,1.91,2.51c0.412,0.979,0.619,2.076,0.619,3.29c0,1.013-0.16,1.96-0.479,2.84s-0.783,1.67-1.39,2.37
		c-0.607,0.7-1.348,1.297-2.221,1.79s-1.863,0.866-2.97,1.12c0.479,0.279,0.907,0.687,1.28,1.22l8.359,11.38h-3.439
		c-0.707,0-1.227-0.273-1.561-0.82l-7.439-10.239c-0.227-0.32-0.474-0.551-0.74-0.69s-0.667-0.21-1.2-0.21H203.31z M203.31,170.138
		h4.06c1.133,0,2.131-0.137,2.99-0.41c0.859-0.272,1.58-0.659,2.16-1.159s1.017-1.097,1.31-1.79c0.294-0.693,0.44-1.46,0.44-2.301
		c0-1.706-0.563-2.993-1.69-3.859c-1.126-0.867-2.804-1.3-5.03-1.3h-4.24V170.138z"/>
	<path fill="#FFFFFF" d="M232.27,164.338c1.213,0,2.332,0.203,3.359,0.61c1.027,0.406,1.913,0.993,2.66,1.76
		c0.746,0.767,1.33,1.714,1.75,2.84c0.42,1.127,0.63,2.41,0.63,3.851c0,0.56-0.06,0.933-0.18,1.119
		c-0.12,0.188-0.347,0.28-0.681,0.28h-13.479c0.026,1.28,0.2,2.394,0.521,3.34c0.319,0.947,0.76,1.737,1.319,2.37
		c0.56,0.634,1.227,1.107,2,1.42c0.773,0.313,1.64,0.471,2.601,0.471c0.893,0,1.662-0.104,2.31-0.311
		c0.646-0.206,1.203-0.43,1.67-0.67s0.856-0.463,1.17-0.67s0.583-0.311,0.81-0.311c0.294,0,0.521,0.114,0.681,0.341l1,1.3
		c-0.44,0.533-0.967,0.997-1.58,1.39c-0.613,0.394-1.271,0.717-1.97,0.97c-0.7,0.254-1.424,0.444-2.17,0.57
		c-0.747,0.127-1.487,0.19-2.221,0.19c-1.399,0-2.689-0.237-3.869-0.71c-1.181-0.474-2.201-1.167-3.061-2.08
		s-1.529-2.043-2.01-3.391c-0.48-1.346-0.721-2.893-0.721-4.64c0-1.413,0.217-2.733,0.65-3.96s1.057-2.29,1.87-3.19
		c0.813-0.899,1.807-1.606,2.979-2.119C229.482,164.595,230.803,164.338,232.27,164.338z M232.35,166.958
		c-1.721,0-3.074,0.497-4.061,1.49s-1.6,2.37-1.84,4.13h11.02c0-0.827-0.113-1.583-0.34-2.271c-0.227-0.687-0.56-1.279-1-1.779
		c-0.439-0.5-0.977-0.887-1.609-1.16C233.886,167.095,233.162,166.958,232.35,166.958z"/>
	<path fill="#FFFFFF" d="M260.088,184.918h-1.579c-0.347,0-0.627-0.053-0.841-0.16c-0.213-0.106-0.354-0.333-0.42-0.68l-0.399-1.88
		c-0.534,0.479-1.054,0.91-1.56,1.29c-0.508,0.38-1.041,0.699-1.601,0.96c-0.56,0.26-1.157,0.457-1.79,0.59s-1.337,0.2-2.109,0.2
		c-0.787,0-1.523-0.11-2.211-0.33c-0.687-0.221-1.283-0.55-1.789-0.99c-0.508-0.44-0.91-0.996-1.211-1.67
		c-0.299-0.673-0.449-1.47-0.449-2.39c0-0.801,0.22-1.57,0.66-2.311c0.439-0.74,1.149-1.396,2.129-1.97
		c0.98-0.573,2.264-1.043,3.851-1.41c1.587-0.366,3.526-0.576,5.819-0.63v-1.58c0-1.573-0.336-2.763-1.01-3.57
		c-0.673-0.807-1.67-1.21-2.99-1.21c-0.866,0-1.596,0.11-2.189,0.33s-1.107,0.467-1.54,0.74s-0.807,0.52-1.12,0.74
		c-0.313,0.22-0.623,0.33-0.93,0.33c-0.24,0-0.45-0.063-0.63-0.19c-0.181-0.127-0.323-0.283-0.431-0.47l-0.64-1.141
		c1.12-1.08,2.327-1.886,3.62-2.42c1.293-0.533,2.727-0.8,4.301-0.8c1.133,0,2.139,0.187,3.02,0.561
		c0.88,0.373,1.619,0.893,2.22,1.56s1.054,1.474,1.36,2.42c0.307,0.947,0.459,1.987,0.459,3.12V184.918z M250.849,182.738
		c0.626,0,1.2-0.063,1.72-0.19c0.52-0.126,1.01-0.307,1.471-0.54c0.459-0.233,0.899-0.517,1.319-0.85
		c0.421-0.333,0.83-0.713,1.229-1.141v-4.22c-1.639,0.054-3.033,0.184-4.18,0.39c-1.146,0.207-2.08,0.478-2.8,0.811
		s-1.243,0.727-1.569,1.18c-0.327,0.454-0.49,0.96-0.49,1.521c0,0.533,0.086,0.993,0.26,1.38s0.406,0.703,0.7,0.95
		c0.293,0.246,0.64,0.427,1.04,0.54S250.382,182.738,250.849,182.738z"/>
	<path fill="#FFFFFF" d="M279.748,184.918c-0.506,0-0.826-0.246-0.959-0.74l-0.32-2.46c-0.867,1.054-1.857,1.897-2.971,2.53
		c-1.113,0.634-2.39,0.95-3.83,0.95c-1.16,0-2.213-0.224-3.16-0.67c-0.946-0.447-1.753-1.104-2.42-1.971
		c-0.666-0.866-1.18-1.946-1.539-3.239c-0.36-1.294-0.541-2.78-0.541-4.46c0-1.493,0.201-2.884,0.601-4.171
		c0.399-1.286,0.977-2.402,1.729-3.35c0.754-0.946,1.67-1.689,2.75-2.229s2.307-0.811,3.681-0.811c1.239,0,2.3,0.21,3.18,0.63
		s1.667,1.01,2.36,1.771v-11.24h3.56v29.46H279.748z M272.848,182.318c1.16,0,2.178-0.267,3.051-0.801
		c0.873-0.533,1.676-1.286,2.41-2.26v-9.8c-0.654-0.88-1.37-1.497-2.15-1.85c-0.779-0.354-1.643-0.53-2.59-0.53
		c-1.894,0-3.347,0.673-4.359,2.02c-1.014,1.348-1.521,3.268-1.521,5.761c0,1.319,0.112,2.449,0.34,3.39
		c0.227,0.939,0.56,1.713,1,2.32c0.44,0.606,0.979,1.05,1.62,1.33C271.289,182.178,272.021,182.318,272.848,182.318z"/>
</g>
</svg>
