<?xml version="1.0" encoding="utf-8"?>
<!-- Generator: Adobe Illustrator 16.0.0, SVG Export Plug-In . SVG Version: 6.00 Build 0)  -->
<!DOCTYPE svg PUBLIC "-//W3C//DTD SVG 1.1//EN" "http://www.w3.org/Graphics/SVG/1.1/DTD/svg11.dtd">
<svg version="1.1" id="Layer_1" xmlns="http://www.w3.org/2000/svg" xmlns:xlink="http://www.w3.org/1999/xlink" x="0px" y="0px"
	 width="416px" height="208.485px" viewBox="0.75 0.75 416 208.485" enable-background="new 0.75 0.75 416 208.485"
	 xml:space="preserve">
<path fill="#FFFFFF" d="M318.018,50.25c-26.754-30.349-65.914-49.5-109.554-49.5c-43.639,0-82.798,19.151-109.552,49.5H318.018z"/>
<image display="none" overflow="visible" enable-background="new    " width="1242" height="2208" xlink:href="A2BAF82D.jpeg"  transform="matrix(1 0 0 1 -413.5002 -1999.75)">
</image>
<rect x="0.5" y="45.25" fill="#EAEAEA" width="416" height="163.985"/>
<text transform="matrix(1 0 0 1 131.1609 185)" fill="#439959" font-family="'Lato-Regular'" font-size="40">Un-Read</text>
<g transform="translate(0,-952.36218)">
	<path fill="#439959" d="M241.606,1018.229c-0.413,0.06-0.804,0.26-1.093,0.561l-69.933,69.933c-0.726,0.69-0.746,1.986-0.042,2.699
		c0.705,0.712,2,0.707,2.699-0.012l16.627-16.627c5.328,1.944,11.044,3.013,17.011,3.013c16.909,0,31.913-8.511,41.228-21.588
		c0.463-0.639,0.463-1.576,0-2.215c-5.241-7.358-12.295-13.229-20.466-16.981l15.534-15.534c0.581-0.546,0.755-1.48,0.409-2.198
		C243.234,1018.561,242.395,1018.115,241.606,1018.229z M206.876,1032.434c-16.909,0-31.913,8.481-41.228,21.559
		c-0.462,0.639-0.462,1.576,0,2.215c4.465,6.269,10.26,11.473,16.922,15.209l2.805-2.806c-6.146-3.277-11.528-7.891-15.77-13.497
		c8.694-11.499,22.121-18.901,37.27-18.901c3.367,0,6.641,0.397,9.805,1.093l3.131-3.131
		C215.674,1033.061,211.349,1032.434,206.876,1032.434z M224.772,1039.876c7.663,3.264,14.318,8.554,19.373,15.239
		c-8.694,11.491-22.126,18.901-37.27,18.901c-4.887,0-9.6-0.781-14.028-2.215l6.114-6.113c2.208,1.667,4.943,2.658,7.915,2.658
		c7.285,0,13.23-5.946,13.23-13.231c0-2.972-0.991-5.706-2.658-7.915L224.772,1039.876z M206.876,1041.885
		c-7.285,0-13.23,5.945-13.23,13.23c0,1.563,0.266,3.064,0.768,4.459l3.13-3.131c-0.06-0.433-0.118-0.877-0.118-1.329
		c0-5.242,4.209-9.451,9.451-9.451c0.451,0,0.896,0.058,1.329,0.118l3.131-3.13C209.941,1042.15,208.439,1041.885,206.876,1041.885z
		 M214.761,1049.888c0.989,1.495,1.565,3.293,1.565,5.228c0,5.242-4.21,9.451-9.451,9.451c-1.934,0-3.732-0.576-5.228-1.565
		L214.761,1049.888z"/>
</g>
</svg>
